<svg id="Layer_1" data-name="Layer 1" xmlns="http://www.w3.org/2000/svg" viewBox="0 0 461.2 162"><defs><style>.cls-1{fill:#fff;}</style></defs><path class="cls-1" d="M156.67,18.1h15.26v1.8H158.61v9.5H171.1v1.8H158.61V43.29h-1.94Z"/><path class="cls-1" d="M178.34,18.1V43.29h-2V18.1Z"/><path class="cls-1" d="M185.75,18.1h8.79c4.82,0,7.41,2.55,7.41,6.19a5.45,5.45,0,0,1-3.89,5.51A6.36,6.36,0,0,1,202.85,36c0,5-3.78,7.27-8.17,7.27h-8.93Zm8.14,10.83c4.35,0,6-1.62,6-4.53,0-2.49-1.73-4.5-5.25-4.5h-7v9ZM187.66,41.5h7.09c3.31,0,6.09-1.66,6.09-5.37,0-3.2-2.06-5.4-7.13-5.4h-6.05Z"/><path class="cls-1" d="M223.41,30.91H210.56V41.5h14.07l-.29,1.79H208.61V18.1h15.45v1.8h-13.5v9.21h12.85Z"/><path class="cls-1" d="M231.58,31.53V43.29h-2V18.1h9c5,0,7.59,2.66,7.59,6.62a5.7,5.7,0,0,1-4.71,5.9c2.59.62,4.32,2.31,4.32,6.59v1c0,1.77-.15,4.14.32,5.11h-2c-.47-1.08-.36-3.09-.36-5.25v-.65c0-4.14-1.22-5.86-6-5.86Zm0-1.81h6.08c4.43,0,6.48-1.65,6.48-5,0-3.1-2-4.86-5.94-4.86h-6.62Z"/><path class="cls-1" d="M263.51,18.1V43.29h-1.94V18.1Z"/><path class="cls-1" d="M270.75,36.53c.76,3.34,3,5.33,7.13,5.33,4.6,0,6.37-2.31,6.37-5s-1.26-4.61-6.81-6c-5.32-1.33-7.63-3.06-7.63-6.69,0-3.32,2.41-6.41,7.81-6.41,5.55,0,7.89,3.38,8.21,6.44h-2c-.58-2.7-2.34-4.64-6.3-4.64-3.64,0-5.62,1.69-5.62,4.5s1.66,3.85,6.3,5c7.09,1.76,8.14,4.61,8.14,7.63,0,3.71-2.71,6.91-8.54,6.91-6.29,0-8.6-3.67-9.07-7Z"/><path class="cls-1" d="M31,60.21a90.2,90.2,0,0,0-7.35,18.37H14.9a69.29,69.29,0,0,1,8.28-18.37Zm10.8,0a94.41,94.41,0,0,0-7.35,18.37H25.7A69.22,69.22,0,0,1,34,60.21Z"/><path class="cls-1" d="M49.74,62.37H70.48l-1.94,9.08H59l-2.09,9.72h8.72l-1.95,9.07H55l-4.18,20.09H39.59Z"/><path class="cls-1" d="M88.69,62.37,80.77,99.74c-.36,1.73-.07,2.67,1,2.67,1.3,0,1.66-.87,2.09-2.67l7.92-37.37h11.52L95.68,98.3c-1.87,8.86-5,12.61-14.91,12.61-9.72,0-12.6-5-10.87-13.18l7.49-35.36Z"/><path class="cls-1" d="M113.61,71.45H107.7l2-9.08h23l-1.95,9.08h-6l-8.21,38.88H105.4Z"/><path class="cls-1" d="M150.61,62.37l-7.92,37.37c-.36,1.73-.07,2.67,1,2.67,1.3,0,1.66-.87,2.09-2.67l7.92-37.37h11.52L157.6,98.3c-1.87,8.86-5,12.61-14.91,12.61-9.72,0-12.6-5-10.87-13.18l7.49-35.36Z"/><path class="cls-1" d="M179,90.1l-4.32,20.23H163.5l10.15-48H187c8.64,0,11.74,4.61,10,12.6l-.72,3.32c-1,4.68-3.17,7-5.9,7.92,2.73,1.65,3.24,4.25,1.65,11.23-1.29,5.69-2.44,11-2.59,12.89H178.55c-.36-.86.21-4.25,2.52-15.12,1-4.75.36-5.11-1.51-5.11Zm1.8-8.14h.87c2.16,0,2.73-.79,3.38-3.82l.79-4c.58-2.81.15-3.6-2-3.6h-.65Z"/><path class="cls-1" d="M222.11,89.88h-9.36l-2.31,11.38h11.09l-2.88,9.07H197.34l10.15-48h21l-2,9.08h-9.79l-2.09,9.29h9.36Z"/><path class="cls-1" d="M248.46,62.37H261c10.08,0,12.17,6.05,10.58,13.61l-1,4.76c-1.72,8.13-4.53,12-13.68,12h-3.67l-3.67,17.64H238.31Zm6.7,21.46h1.08c1.8,0,2.52-.86,3-3.31l1.37-6.7c.5-2.52-.07-3.31-1.66-3.31h-1Z"/><path class="cls-1" d="M287.34,90.1,283,110.33H271.86l10.15-48h13.32c8.64,0,11.74,4.61,10,12.6l-.72,3.32c-1,4.68-3.17,7-5.9,7.92,2.73,1.65,3.24,4.25,1.65,11.23-1.29,5.69-2.45,11-2.59,12.89H286.91c-.36-.86.21-4.25,2.52-15.12,1-4.75.36-5.11-1.52-5.11Zm1.8-8.14H290c2.16,0,2.74-.79,3.39-3.82l.79-4c.58-2.81.14-3.6-2-3.6h-.65Z"/><path class="cls-1" d="M338.53,76.34l-4.75,22.18c-2.09,9.87-6.55,12.53-14.83,12.53-8.72,0-12.89-4.32-10.81-14l5-23.47c2-9.36,6.85-12,14.05-12C336.8,61.65,340.62,66.55,338.53,76.34Zm-14.11-3.17-5.55,26.29c-.36,1.8-.07,3,1.16,3s1.8-1,2.23-3L327.8,73.1c.43-2.16.07-2.81-1.22-2.81C325.5,70.29,324.85,71,324.42,73.17Z"/><path class="cls-1" d="M372.08,76.34l-4.75,22.18c-2.09,9.87-6.55,12.53-14.83,12.53-8.72,0-12.89-4.32-10.8-14l5-23.47c2-9.36,6.84-12,14-12C370.35,61.65,374.17,66.55,372.08,76.34ZM358,73.17l-5.55,26.29c-.36,1.8-.07,3,1.16,3s1.8-1,2.23-3l5.54-26.36c.44-2.16.07-2.81-1.22-2.81C359.05,70.29,358.4,71,358,73.17Z"/><path class="cls-1" d="M382.88,62.37h20.74l-1.95,9.08h-9.5l-2.09,9.72h8.71l-1.94,9.07h-8.72L384,110.33H372.73Z"/><path class="cls-1" d="M418.16,78.58a95,95,0,0,0,7.34-18.37h8.79A69.22,69.22,0,0,1,426,78.58Zm10.8,0a90.72,90.72,0,0,0,7.34-18.37h8.79a69.29,69.29,0,0,1-8.28,18.37Z"/><path class="cls-1" d="M79.71,138.93a10.36,10.36,0,0,1-2.45.23C78.33,139.13,79.93,138.55,79.71,138.93Zm321-11.14a14.13,14.13,0,0,0-3.4,0c-.12.26.57.42,1.16.6C398.35,127.83,401.05,128.44,400.69,127.79ZM72.34,139.57c-.72.07-2.29.47-3.61.63.16.19,2.16-.33,2.47-.19C71.21,139.88,72.5,139.69,72.34,139.57ZM31.28,148c2.12-.59,5.64-1.14,8.32-2C36.66,146.78,33.8,147.18,31.28,148Zm-3.2.65c5.13-1.35-.51,0-2.75.73Zm27.18-8.37a23.39,23.39,0,0,0,3.58-.83A32.75,32.75,0,0,0,55.26,140.28ZM46.84,142c-1.14.27-2.16.53-1.92.67A7.62,7.62,0,0,0,46.84,142ZM69,136.55c.11.17-2.48.5-2.36.66C67,137.25,70.35,136.4,69,136.55Zm53.48-12.2c-.88,0-4.73.5-4.84.89A41.33,41.33,0,0,0,122.52,124.35Zm210.77.81c-1.12.06-3.18-.19-3.75,0A14,14,0,0,0,333.29,125.16Zm29.92,1.4c2.3.39,3.15.06,5.42.34,4.23.5,8.11,2.39,12.23,2.66a7.76,7.76,0,0,0,3.46-.45c-3.93.52-7.24-.67-11.58-1.56-7.36-1.51-17.18-2.36-27.26-3.22,4.63.61,14.43,1.35,20.68,2.2.25,0,.49.07.4.15A29.39,29.39,0,0,0,363.21,126.56ZM81.59,138.09c1.39-.57,2.79-.42,5.16-1.08,3.42.05,11.35-1.56,15.8-1.86-7.18,1.27-15.15,2.35-22.08,3.5,2.68-.11,9.58-1.47,14.1-2,1.94-.23,2-.2,4.05-.45,0-.09.09-.18.77-.27-.76.29.12.05.44.13,38.8-6.73,86.61-12.15,122.91-14,2.93-.16,6.86-.21,7.37-.23,19.33-1,38.05-1.21,57.11-.74,4.62.12,9.67.19,14.45.29,17.41.35,36.52,1.77,52.17,3,2.8.22,5.41.26,7.92.52.6.06,2.55.5,3.29.53s2-.3,3.39-.18c.84.07,1.57.38,2.05.42a2.88,2.88,0,0,1,1.28-.08c.93.1,1.77.28,2.89.42,4.89.63,7,.27,11,.28a20.9,20.9,0,0,0,4.9,1.14c2.16-.14,4-.57,6.83-.12.53-.45-1.44,0-1.63-.43,2.17-.36,2.41-2.1,5.44-1.74,1.32-.89-2.43-1.65-1.76-2.11-.6-.14-2.19-.15-2.08-.38,1.19-1.14-5.06-1.76-4.27-2.5-3,.12-4.48-.66-6.66-1.19.78-.12,1.28.29,1.72,0a55.31,55.31,0,0,1-9.18-1.41c1.76.15-.13-.4.94-.55-1.41-.11-5-.43-4.66-.25,2.77.26,2.17.62,3.79.37-.09.2-.34.33-.91.34-3.49-.55-6.54-1.28-8.8-1a11.57,11.57,0,0,1-2.43-.86l-3.36-.29c-8.85-1.94-27.94-2.84-39.82-3-3.62-.72-8.48-.34-13-.66-14.58-1-30.43-.09-43.42-.39-.85,0-.82.26-1.68.3-22.16,0-49.05,1.79-74.49,4.09.46-.3-.66-.14-.84-.25-11.49,1.51-22.23,2.7-32.7,4.51,2.61-.34,5-.6,7-.71a25,25,0,0,0-3.26.48c4.59-.41,13.25-1.56,17.59-1.93a2.92,2.92,0,0,0-1.21.29c6.7-.69,12.14-1.43,20.51-2-20.41,2.07-35.62,3.82-54.39,6.21,3.71-.78,9.08-1,11.79-1.74-1.92.26-7.13,1-8.56,1.06,2.94-.59,7.95-1,10.15-1.66-15.48,1.51-30.4,4-45.52,6.71,2.57-.26,7.58-1.37,10.13-1.59a9.24,9.24,0,0,0-1.18.35c3.22-.64,7.06-1,7.68-1.33a7.48,7.48,0,0,1-1.63.19c6.11-1.08,12.69-1.54,18.73-2.51a22.7,22.7,0,0,1-4.06.65c.23.21-1.8.71-2.81.63,1.16-.15,2.22-.31,2-.51-4,.71-9,1.07-11.36,1.79,3.61-.59,7.34-1.1,8.54-1.23-3.21.59-7.4,1.14-11.38,1.68.84-.07,2.51-.47,1.2-.34-2.17.57-9.64,1.31-10.1,1.8a61.78,61.78,0,0,1,6.49-1c-.67.25-4.55.85-4,.88s2.07-.43,2-.26c-3.46.48-8.9,1.64-10.52,1.71,1.69-.24,3.36-.68,4-.7.84-.37.21-.33,1.14-.63-3.38.54-8.22,1.28-8.19.86-23,3.84-54,11.78-70.63,17.37a29.74,29.74,0,0,1,4.4-.93c-3.14.76-7.74,1.81-10.66,2.73,4.17-1.13,7.71-1.79,11.46-2.92a17.57,17.57,0,0,0-2.85.46c2.38-.67,5.31-1.7,5.13-1.34a14.35,14.35,0,0,1,3.19-.72c.62-.2-.18-.27,1.12-.53.68-.14-.06.1.05.18a26.61,26.61,0,0,1,5.11-1.41,53.74,53.74,0,0,1,7.07-2c1.64-.4,3.1-.9,5.11-1.42,6.7-1.76,17.29-4.1,22.36-4.94a4.81,4.81,0,0,0-1.18.3c3.62-.72,6-1.46,8-1.51-4.79.91-14,2.88-19.2,4.09-.56.12-1.52.34-.78.24,2.86-.56,7.18-1.65,8.83-1.71-2.89.53-5.19,1.13-7.19,1.56-2.31.49-5.85,1-7.52,1.89,2.59-.47.23-.25,2-.63-.41.3.66,0,.86.08-2.86.86-8.76,1.93-10.25,2.73.56.16,2.14-.53,2.41-.48-1,.23,0,.23.45.1,2-.54,3.55-.82,6-1.31-13.85,3.2-17.93,4.23-30.5,7.35,1.19-.2,4-.87,1.66-.16,2.43-.52,5.56-1.32,7.57-1.64-3,.67-6.45,1.58-7.88,2,5.32-1.27,10.73-2.55,15.53-3.37a19.7,19.7,0,0,0-2.77.64,17.53,17.53,0,0,1,2-.34c-3.36.74-3.86,1-6.67,1.81,2.74-.58,2.25-.59,5.13-1.26-1.87.7,1.69-.26,2.07-.15a6,6,0,0,0-1.95.57A109.42,109.42,0,0,1,67,139.92c0,.08-.68.2-.76.29,3.37-.57,4.64-1.06,8.43-1.46a8,8,0,0,0-1.54.53,7.4,7.4,0,0,1,2.43-.31c-.66.14-2.58.32-2.37.56C75.4,139.27,81.06,137.64,81.59,138.09ZM50.3,142.16l-4,1C46.11,143.12,50.75,141.82,50.3,142.16ZM65.63,138c.37-.31,1.21-.28,2.36-.66C68.05,137.68,66.89,137.75,65.63,138Zm51.76-5.2a26.66,26.66,0,0,0-3.21.51C114.26,133.2,117.45,132.54,117.39,132.84Zm-4.83.7a20.55,20.55,0,0,1-2.79.53A9.47,9.47,0,0,1,112.56,133.54Zm260-16.19c.21-.7,4.39.16,6.34.41A45.13,45.13,0,0,1,372.57,117.35Zm-305,23.1c-.8.22-2.78.5-2.35.64,1.47-.43,1.83-.31,2.39-.51C67.09,140.67,67.32,140.56,67.54,140.45Zm-3.74.16c-1.24.29-2.92.61-3.55.86,0,.07.23.11.41,0C61.37,141,63.7,140.94,63.8,140.61Zm-12.13.45c-.39.22-2.38.46-2.74.79C50,141.6,52.88,140.91,51.67,141.06ZM391.9,119.39c-.57.18,3.16,1.25,4.08,1.25C394.2,120.27,393.4,119.78,391.9,119.39Z"/></svg>