<?xml version="1.0" encoding="utf-8"?>
<!-- Generator: Adobe Illustrator 25.0.0, SVG Export Plug-In . SVG Version: 6.00 Build 0)  -->
<svg version="1.1" id="Layer_1" xmlns="http://www.w3.org/2000/svg" xmlns:xlink="http://www.w3.org/1999/xlink" x="0px" y="0px"
	 viewBox="0 0 1085.9 495" enable-background="new 0 0 1085.9 495" xml:space="preserve">
<rect fill="#009BAB" width="1085.6" height="494.2"/>
<g>
	<defs>
		<polygon id="SVGID_39_" points="18.7,15.5 653.5,12.5 664.5,473.8 339.4,473.8 22.8,286 		"/>
	</defs>
	<clipPath id="SVGID_2_">
		<use xlink:href="#SVGID_39_"  overflow="visible"/>
	</clipPath>
	<g clip-path="url(#SVGID_2_)">
		
			<image overflow="visible" width="1275" height="1650" xlink:href="../Anthem Broadband/website/Elko construction plan.png"  transform="matrix(0.5944 0 0 0.5944 -55.6173 -209.8927)">
		</image>
	</g>
</g>
<g>
	<g>
		<path fill="#FFFFFF" d="M388.6,144.7h-12.7v9.8h13.9l-0.4,2.3h-16.1v-25.1h15.8v2.3h-13.3v8.5h12.7V144.7z"/>
		<path fill="#FFFFFF" d="M394,156.8v-26.5h2.4v26.5H394z"/>
		<path fill="#FFFFFF" d="M404.5,147.7c1.6-1.8,6.2-6.5,8.6-9h3l-7,7.1l7.9,11H414l-6.7-9.4l-2.9,2.8v6.7h-2.4v-26.5h2.4V147.7z"/>
		<path fill="#FFFFFF" d="M434.6,147.7c0,5.1-2.9,9.5-8.3,9.5c-5,0-8.1-4-8.1-9.5c0-5.3,3-9.5,8.3-9.5
			C431.4,138.3,434.6,142,434.6,147.7z M420.7,147.8c0,4.2,2.2,7.4,5.7,7.4c3.6,0,5.7-3,5.7-7.4c0-4.2-2-7.4-5.8-7.4
			C422.6,140.4,420.7,143.5,420.7,147.8z"/>
	</g>
</g>
<g>
	<g>
		<path fill="#FFFFFF" d="M188.4,455.6c0.7,3.2,2.9,5,6.8,5c4.3,0,6-2.1,6-4.7c0-2.7-1.2-4.3-6.6-5.6c-5.6-1.4-7.8-3.2-7.8-6.8
			c0-3.5,2.6-6.6,8-6.6c5.7,0,8.1,3.4,8.5,6.6h-2.6c-0.5-2.5-2.1-4.4-5.9-4.4c-3.4,0-5.2,1.5-5.2,4.2c0,2.6,1.5,3.6,6.1,4.7
			c7.1,1.8,8.3,4.6,8.3,7.7c0,3.9-2.8,7-8.8,7c-6.3,0-8.8-3.6-9.3-7.2H188.4z"/>
		<path fill="#FFFFFF" d="M210.8,460v9.7h-2.4v-20.9c0-1.5,0-3,0-4.4h2.4c0.1,0.6,0.1,1.7,0.1,3.1c1.1-2,3-3.5,6.2-3.5
			c4.2,0,7.2,3.6,7.2,9c0,6.5-3.5,10-7.9,10C213.3,462.9,211.7,461.6,210.8,460z M221.7,453c0-4-1.9-6.9-5.3-6.9
			c-4.1,0-5.8,2.6-5.8,7.3c0,4.6,1.3,7.4,5.5,7.4C219.8,460.8,221.7,457.8,221.7,453z"/>
		<path fill="#FFFFFF" d="M228.6,449.3c0-2.8,0-4.2,0-4.9h2.4c0,0.5,0.1,1.8,0.1,3.9c1-2.6,3.2-4.2,6.2-4.3v2.5
			c-3.7,0.2-6.2,2.5-6.2,6.9v9.1h-2.4V449.3z"/>
		<path fill="#FFFFFF" d="M240.7,436h2.4v3.7h-2.4V436z M240.7,444.4h2.4v18.1h-2.4V444.4z"/>
		<path fill="#FFFFFF" d="M248.8,448.9c0-1.6,0-3.1,0-4.6h2.4c0.1,0.6,0.1,2.7,0.1,3.2c0.8-1.7,2.2-3.7,5.9-3.7
			c3.3,0,6.1,1.9,6.1,6.8v11.7h-2.4v-11.4c0-3-1.2-5-4.2-5c-3.9,0-5.3,3.1-5.3,6.9v9.4h-2.4V448.9z"/>
		<path fill="#FFFFFF" d="M283.1,461.1c0,5.8-2.5,9-8,9c-5.1,0-6.9-2.8-7.3-5.5h2.5c0.6,2.3,2.4,3.4,4.9,3.4c4.4,0,5.6-2.8,5.6-7.2
			V459c-1,2.2-2.7,3.4-5.9,3.4c-4.3,0-7.5-3.5-7.5-9c0-6,3.5-9.5,7.8-9.5c3.6,0,5.1,1.7,5.6,3c0-0.9,0.1-2.2,0.1-2.6h2.3
			c0,0.8-0.1,3.5-0.1,5.2V461.1z M270,453.3c0,4.1,2.1,7,5.4,7c4.2,0,5.5-2.8,5.5-7.2c0-4.5-1.3-7-5.4-7
			C271.7,446.1,270,449.3,270,453.3z"/>
		<path fill="#FFFFFF" d="M318,455.6c-1.2,4.1-4.2,7.2-9.7,7.2c-7.4,0-11.1-5.7-11.1-12.8c0-6.8,3.8-13,11.2-13
			c5.6,0,8.9,3.2,9.6,7.4h-2.6c-1-3-3-5.1-7.2-5.1c-5.9,0-8.4,5.4-8.4,10.7c0,5.2,2.4,10.6,8.5,10.6c4,0,5.9-2.2,7-5H318z"/>
		<path fill="#FFFFFF" d="M322.4,449.3c0-2.8,0-4.2,0-4.9h2.4c0,0.5,0.1,1.8,0.1,3.9c1-2.6,3.2-4.2,6.2-4.3v2.5
			c-3.7,0.2-6.2,2.5-6.2,6.9v9.1h-2.4V449.3z"/>
		<path fill="#FFFFFF" d="M335.6,453.8c0,4.2,2.2,7,5.5,7c3.2,0,4.2-1.7,4.8-3.1h2.4c-0.7,2.4-2.7,5.2-7.4,5.2
			c-5.6,0-7.8-4.7-7.8-9.3c0-5.3,2.6-9.7,8-9.7c5.7,0,7.5,4.8,7.5,8.4c0,0.5,0,1,0,1.5H335.6z M346.2,451.9c0-3.3-1.8-5.9-5.1-5.9
			c-3.5,0-5,2.4-5.4,5.9H346.2z"/>
		<path fill="#FFFFFF" d="M354,453.8c0,4.2,2.2,7,5.5,7c3.2,0,4.2-1.7,4.8-3.1h2.4c-0.7,2.4-2.7,5.2-7.4,5.2c-5.6,0-7.8-4.7-7.8-9.3
			c0-5.3,2.6-9.7,8-9.7c5.7,0,7.5,4.8,7.5,8.4c0,0.5,0,1,0,1.5H354z M364.7,451.9c0-3.3-1.8-5.9-5.1-5.9c-3.5,0-5,2.4-5.4,5.9H364.7
			z"/>
		<path fill="#FFFFFF" d="M373.8,453.4c1.6-1.8,6.2-6.5,8.6-9h3l-7,7.1l7.9,11h-2.9l-6.7-9.4l-2.9,2.8v6.7h-2.4V436h2.4V453.4z"/>
	</g>
</g>
<g>
	<g>
		<path fill="#FFFFFF" d="M592.3,145.6l-6.5-24.4h3.4c1.9,8,4.5,18.1,5,20.8h0c0.6-3.1,4-14.6,5.6-20.8h3.1
			c1.5,5.4,4.8,17.8,5.3,20.7h0c0.8-4.2,4.2-15.7,5.5-20.7h3.2l-7.1,24.4h-3.5c-1.5-5.6-4.6-17.2-5.2-20.1h0
			c-0.7,3.6-3.9,14.5-5.4,20.1H592.3z"/>
		<path fill="#FFFFFF" d="M622.2,137.3c0,3.6,1.8,6.2,4.9,6.2c2.8,0,3.7-1.4,4.3-2.7h3.1c-0.7,2.3-2.6,5.3-7.5,5.3
			c-5.6,0-7.9-4.5-7.9-9.1c0-5.3,2.7-9.5,8.1-9.5c5.7,0,7.6,4.6,7.6,8.4c0,0.5,0,1,0,1.5H622.2z M631.7,135.1c0-2.9-1.5-5.3-4.5-5.3
			c-3.1,0-4.5,2.2-4.8,5.3H631.7z"/>
		<path fill="#FFFFFF" d="M650.6,119.9v10.6c0.9-1.6,2.5-3,5.5-3c2.8,0,6,1.6,6,6.8v11.3h-3.1v-10.8c0-3-1.3-4.7-3.9-4.7
			c-3.2,0-4.6,2.1-4.6,5.8v9.7h-3.1v-25.7H650.6z"/>
		<path fill="#FFFFFF" d="M680.6,141.7c0,1.6,0.1,3.4,0.2,3.9h-2.9c-0.1-0.4-0.2-1.2-0.3-2.3c-0.6,1.2-2,2.7-5.5,2.7
			c-4.2,0-6-2.7-6-5.4c0-4,3.1-5.8,8.4-5.8c1.2,0,2.4,0,3,0v-1.5c0-1.6-0.5-3.5-3.8-3.5c-3,0-3.5,1.5-3.8,2.9h-3
			c0.2-2.4,1.7-5.3,6.9-5.3c4.3,0,6.7,1.8,6.7,5.8V141.7z M677.6,137c-0.6,0-1.9,0-2.9,0c-3.5,0-5.4,1-5.4,3.5
			c0,1.8,1.3,3.2,3.5,3.2c4.3,0,4.9-2.9,4.9-6.1V137z"/>
		<path fill="#FFFFFF" d="M687,127.9c2.4,7.3,4.1,12.7,4.7,14.9h0c0.4-2,2.3-7.3,5-14.9h3.1l-6.5,17.8h-3.4l-6.2-17.8H687z"/>
		<path fill="#FFFFFF" d="M704.6,137.3c0,3.6,1.8,6.2,4.9,6.2c2.8,0,3.7-1.4,4.3-2.7h3.1c-0.7,2.3-2.6,5.3-7.5,5.3
			c-5.6,0-7.9-4.5-7.9-9.1c0-5.3,2.7-9.5,8.1-9.5c5.7,0,7.6,4.6,7.6,8.4c0,0.5,0,1,0,1.5H704.6z M714.1,135.1c0-2.9-1.5-5.3-4.5-5.3
			c-3.1,0-4.5,2.2-4.8,5.3H714.1z"/>
		<path fill="#FFFFFF" d="M743.2,141.7c0,1.6,0.1,3.4,0.2,3.9h-2.9c-0.1-0.4-0.2-1.2-0.3-2.3c-0.6,1.2-2,2.7-5.5,2.7
			c-4.2,0-6-2.7-6-5.4c0-4,3.1-5.8,8.4-5.8c1.2,0,2.4,0,3,0v-1.5c0-1.6-0.5-3.5-3.8-3.5c-3,0-3.5,1.5-3.8,2.9h-3
			c0.2-2.4,1.7-5.3,6.9-5.3c4.3,0,6.7,1.8,6.7,5.8V141.7z M740.2,137c-0.6,0-1.9,0-2.9,0c-3.5,0-5.4,1-5.4,3.5
			c0,1.8,1.3,3.2,3.5,3.2c4.3,0,4.9-2.9,4.9-6.1V137z"/>
		<path fill="#FFFFFF" d="M760.4,143.4v9.2h-3.1v-20.4c0-1.4,0-3,0-4.3h3c0.1,0.6,0.1,1.7,0.1,2.8c1-1.8,2.8-3.2,5.8-3.2
			c4.1,0,7.1,3.4,7.1,8.8c0,6.3-3.4,9.8-7.7,9.8C762.7,146,761.2,144.8,760.4,143.4z M770.1,136.4c0-3.8-1.7-6.3-4.7-6.3
			c-3.7,0-5.1,2.3-5.1,6.6c0,4.2,1.2,6.7,4.9,6.7C768.4,143.4,770.1,140.8,770.1,136.4z"/>
		<path fill="#FFFFFF" d="M777.3,145.6v-25.7h3.1v25.7H777.3z"/>
		<path fill="#FFFFFF" d="M798.8,141.7c0,1.6,0.1,3.4,0.2,3.9h-2.9c-0.1-0.4-0.2-1.2-0.3-2.3c-0.6,1.2-2,2.7-5.5,2.7
			c-4.2,0-6-2.7-6-5.4c0-4,3.1-5.8,8.4-5.8c1.2,0,2.4,0,3,0v-1.5c0-1.6-0.5-3.5-3.8-3.5c-3,0-3.5,1.5-3.8,2.9h-3
			c0.2-2.4,1.7-5.3,6.9-5.3c4.3,0,6.7,1.8,6.7,5.8V141.7z M795.8,137c-0.6,0-1.9,0-2.9,0c-3.5,0-5.4,1-5.4,3.5
			c0,1.8,1.3,3.2,3.5,3.2c4.3,0,4.9-2.9,4.9-6.1V137z"/>
		<path fill="#FFFFFF" d="M804.1,132.3c0-1.5,0-3.1,0-4.5h3c0.1,0.5,0.1,2.4,0.1,2.9c0.7-1.5,2.2-3.3,5.6-3.3c3.3,0,5.9,2,5.9,6.8
			v11.4h-3.1v-11c0-2.7-1-4.5-3.8-4.5c-3.3,0-4.7,2.5-4.7,6.1v9.4h-3.1V132.3z"/>
		<path fill="#FFFFFF" d="M830.5,127.9h3.1v-5.2h3.1v5.2h3.9v2.5h-3.9v10.4c0,1.7,0.4,2.6,2,2.6c0.4,0,1.1,0,1.5-0.1v2.3
			c-0.8,0.3-1.8,0.3-2.7,0.3c-2.8,0-4-1.4-4-4.4v-11.1h-3.1V127.9z"/>
		<path fill="#FFFFFF" d="M859.2,136.7c0,5.1-2.9,9.3-8.4,9.3c-5.1,0-8.2-3.9-8.2-9.3c0-5.2,3-9.3,8.4-9.3
			C856,127.4,859.2,131.1,859.2,136.7z M845.8,136.7c0,3.9,1.9,6.7,5.1,6.7c3.2,0,5.1-2.7,5.1-6.7c0-4-1.8-6.7-5.1-6.7
			C847.6,130,845.8,132.7,845.8,136.7z"/>
		<path fill="#FFFFFF" d="M886.7,144c0,5.7-2.3,8.9-8.1,8.9c-5.4,0-7-3-7.4-5.4h3.1c0.5,1.9,2.1,3,4.4,3c4,0,5-2.6,5-6.6v-1.4
			c-0.9,2-2.6,3.1-5.5,3.1c-4.4,0-7.3-3.6-7.3-8.8c0-5.8,3.4-9.3,7.7-9.3c3.4,0,4.8,1.6,5.2,2.8c0-0.8,0.1-2,0.1-2.4h2.9
			c0,1-0.1,3.4-0.1,5.1V144z M874,136.6c0,3.7,1.9,6.3,4.8,6.3c3.8,0,4.9-2.6,4.9-6.5c0-4-1.1-6.4-4.8-6.4
			C875.6,130,874,132.8,874,136.6z"/>
		<path fill="#FFFFFF" d="M893.7,137.3c0,3.6,1.8,6.2,4.9,6.2c2.8,0,3.7-1.4,4.3-2.7h3.1c-0.7,2.3-2.6,5.3-7.5,5.3
			c-5.6,0-7.9-4.5-7.9-9.1c0-5.3,2.7-9.5,8.1-9.5c5.7,0,7.6,4.6,7.6,8.4c0,0.5,0,1,0,1.5H893.7z M903.2,135.1c0-2.9-1.5-5.3-4.5-5.3
			c-3.1,0-4.5,2.2-4.8,5.3H903.2z"/>
		<path fill="#FFFFFF" d="M907.9,127.9h3.1v-5.2h3.1v5.2h3.9v2.5H914v10.4c0,1.7,0.4,2.6,2,2.6c0.4,0,1.1,0,1.5-0.1v2.3
			c-0.8,0.3-1.8,0.3-2.7,0.3c-2.8,0-4-1.4-4-4.4v-11.1h-3.1V127.9z"/>
		<path fill="#FFFFFF" d="M644.3,179.3c0,3.6,1.8,6.2,4.9,6.2c2.8,0,3.7-1.4,4.3-2.7h3.1c-0.7,2.3-2.6,5.3-7.5,5.3
			c-5.6,0-7.9-4.5-7.9-9.1c0-5.3,2.7-9.5,8.1-9.5c5.7,0,7.6,4.6,7.6,8.4c0,0.5,0,1,0,1.5H644.3z M653.8,177.1c0-2.9-1.5-5.3-4.5-5.3
			c-3.1,0-4.5,2.2-4.8,5.3H653.8z"/>
		<path fill="#FFFFFF" d="M661.9,169.9c2.4,7.3,4.1,12.7,4.7,14.9h0c0.4-2,2.3-7.3,5-14.9h3.1l-6.5,17.8h-3.4l-6.2-17.8H661.9z"/>
		<path fill="#FFFFFF" d="M679.6,179.3c0,3.6,1.8,6.2,4.9,6.2c2.8,0,3.7-1.4,4.3-2.7h3.1c-0.7,2.3-2.6,5.3-7.5,5.3
			c-5.6,0-7.9-4.5-7.9-9.1c0-5.3,2.7-9.5,8.1-9.5c5.7,0,7.6,4.6,7.6,8.4c0,0.5,0,1,0,1.5H679.6z M689,177.1c0-2.9-1.5-5.3-4.5-5.3
			c-3.1,0-4.5,2.2-4.8,5.3H689z"/>
		<path fill="#FFFFFF" d="M696.1,174.7c0-2.5,0-3.9,0-4.8h3c0,0.5,0.1,1.9,0.1,3.6c0.9-2.4,3-4,6-4v3.1c-3.6,0.1-6,2-6,6.5v8.6h-3.1
			V174.7z"/>
		<path fill="#FFFFFF" d="M709.4,169.9c2.9,8.5,4.4,13.2,4.9,15h0c0.6-2,1.8-6.1,4.7-15h3.1l-6.4,18.6c-1.8,5.2-3.1,6.5-6.8,6.5
			c-0.6,0-1.2,0-1.9-0.1v-2.7c0.5,0.1,1,0.1,1.5,0.1c2.2,0,3.1-1,4.1-4l-6.6-18.4H709.4z"/>
		<path fill="#FFFFFF" d="M740.5,178.7c0,5.1-2.9,9.3-8.4,9.3c-5.1,0-8.2-3.9-8.2-9.3c0-5.2,3-9.3,8.4-9.3
			C737.2,169.4,740.5,173.1,740.5,178.7z M727.1,178.7c0,3.9,1.9,6.7,5.1,6.7c3.2,0,5.1-2.7,5.1-6.7c0-4-1.8-6.7-5.1-6.7
			C728.8,172,727.1,174.7,727.1,178.7z"/>
		<path fill="#FFFFFF" d="M744.5,174.3c0-1.5,0-3.1,0-4.5h3c0.1,0.5,0.1,2.4,0.1,2.9c0.7-1.5,2.2-3.3,5.6-3.3c3.3,0,5.9,2,5.9,6.8
			v11.4H756v-11c0-2.7-1-4.5-3.8-4.5c-3.3,0-4.7,2.5-4.7,6.1v9.4h-3.1V174.3z"/>
		<path fill="#FFFFFF" d="M766.1,179.3c0,3.6,1.8,6.2,4.9,6.2c2.8,0,3.7-1.4,4.3-2.7h3.1c-0.7,2.3-2.6,5.3-7.5,5.3
			c-5.6,0-7.9-4.5-7.9-9.1c0-5.3,2.7-9.5,8.1-9.5c5.7,0,7.6,4.6,7.6,8.4c0,0.5,0,1,0,1.5H766.1z M775.5,177.1c0-2.9-1.5-5.3-4.5-5.3
			c-3.1,0-4.5,2.2-4.8,5.3H775.5z"/>
		<path fill="#FFFFFF" d="M805.4,182.2c-0.8,3.1-2.8,5.9-7.3,5.9c-4.9,0-7.9-3.5-7.9-9.2c0-5,2.8-9.4,8.1-9.4c5.1,0,6.9,3.6,7.1,5.9
			h-3c-0.4-1.8-1.6-3.4-4.1-3.4c-3.1,0-4.9,2.7-4.9,6.7c0,4,1.7,6.8,4.8,6.8c2.2,0,3.5-1.2,4.2-3.3H805.4z"/>
		<path fill="#FFFFFF" d="M824.4,178.7c0,5.1-2.9,9.3-8.4,9.3c-5.1,0-8.2-3.9-8.2-9.3c0-5.2,3-9.3,8.4-9.3
			C821.2,169.4,824.4,173.1,824.4,178.7z M811,178.7c0,3.9,1.9,6.7,5.1,6.7c3.2,0,5.1-2.7,5.1-6.7c0-4-1.8-6.7-5.1-6.7
			C812.8,172,811,174.7,811,178.7z"/>
		<path fill="#FFFFFF" d="M829.5,169.9c2.4,7.3,4.1,12.7,4.7,14.9h0c0.4-2,2.3-7.3,5-14.9h3.1l-6.5,17.8h-3.4l-6.2-17.8H829.5z"/>
		<path fill="#FFFFFF" d="M847.2,179.3c0,3.6,1.8,6.2,4.9,6.2c2.8,0,3.7-1.4,4.3-2.7h3.1c-0.7,2.3-2.6,5.3-7.5,5.3
			c-5.6,0-7.9-4.5-7.9-9.1c0-5.3,2.7-9.5,8.1-9.5c5.7,0,7.6,4.6,7.6,8.4c0,0.5,0,1,0,1.5H847.2z M856.6,177.1c0-2.9-1.5-5.3-4.5-5.3
			c-3.1,0-4.5,2.2-4.8,5.3H856.6z"/>
		<path fill="#FFFFFF" d="M863.6,174.7c0-2.5,0-3.9,0-4.8h3c0,0.5,0.1,1.9,0.1,3.6c0.9-2.4,3-4,6-4v3.1c-3.6,0.1-6,2-6,6.5v8.6h-3.1
			V174.7z"/>
		<path fill="#FFFFFF" d="M877.8,179.3c0,3.6,1.8,6.2,4.9,6.2c2.8,0,3.7-1.4,4.3-2.7h3.1c-0.7,2.3-2.6,5.3-7.5,5.3
			c-5.6,0-7.9-4.5-7.9-9.1c0-5.3,2.7-9.5,8.1-9.5c5.7,0,7.6,4.6,7.6,8.4c0,0.5,0,1,0,1.5H877.8z M887.2,177.1c0-2.9-1.5-5.3-4.5-5.3
			c-3.1,0-4.5,2.2-4.8,5.3H887.2z"/>
		<path fill="#FFFFFF" d="M909,161.9v20.7c0,1.7,0,3.3,0,5h-2.9c-0.1-0.5-0.1-1.8-0.2-2.5c-0.9,1.8-2.7,2.9-5.6,2.9
			c-4.6,0-7.4-3.7-7.4-9.1c0-5.5,3-9.5,7.9-9.5c3.1,0,4.5,1.3,5,2.3v-9.8H909z M896.2,178.8c0,4.3,2,6.6,4.8,6.6
			c4.1,0,5.1-3.1,5.1-7c0-3.9-0.8-6.4-4.8-6.4C898.1,172,896.2,174.5,896.2,178.8z"/>
		<path fill="#FFFFFF" d="M913.6,187.6v-5.2h3.2v5.2H913.6z"/>
	</g>
</g>
<g>
	<g>
		<path fill="#FFFFFF" d="M661.4,268.6l-4-14.7h1.6c1.1,4.1,3,11.3,3.3,13h0c0.3-1.6,2.6-9.2,3.5-13h1.5c0.9,3.4,3.1,11.5,3.4,12.9
			h0c0.5-2.3,2.7-9.7,3.7-12.9h1.5l-4.4,14.7h-1.7c-0.9-3.4-3-11.2-3.3-12.7h0c-0.4,2-2.5,9.2-3.5,12.7H661.4z"/>
		<path fill="#FFFFFF" d="M686.8,263.3c0,3-1.7,5.6-4.9,5.6c-2.9,0-4.7-2.3-4.7-5.5c0-3.1,1.7-5.5,4.8-5.5
			C684.9,257.7,686.8,259.9,686.8,263.3z M678.7,263.3c0,2.4,1.3,4.3,3.3,4.3c2.1,0,3.3-1.8,3.3-4.3c0-2.4-1.2-4.3-3.4-4.3
			C679.8,259,678.7,260.8,678.7,263.3z"/>
		<path fill="#FFFFFF" d="M689.3,260.7c0-0.9,0-1.8,0-2.7h1.4c0,0.3,0.1,1.6,0.1,1.9c0.4-1,1.3-2.1,3.4-2.1c1.9,0,3.5,1.1,3.5,4v6.8
			h-1.4v-6.6c0-1.8-0.7-2.9-2.4-2.9c-2.3,0-3.1,1.8-3.1,4v5.5h-1.4V260.7z"/>
		<path fill="#FFFFFF" d="M709.5,253.1v12.4c0,1,0,2,0,3h-1.4c0-0.3-0.1-1.2-0.1-1.6c-0.5,1.2-1.7,1.9-3.4,1.9
			c-2.7,0-4.4-2.2-4.4-5.4c0-3.3,1.8-5.7,4.7-5.7c2,0,2.8,0.8,3.1,1.5v-6.1H709.5z M701.7,263.4c0,2.7,1.4,4.2,3.1,4.2
			c2.6,0,3.3-1.9,3.3-4.5c0-2.6-0.6-4.1-3.1-4.1C703,259,701.7,260.6,701.7,263.4z"/>
		<path fill="#FFFFFF" d="M713.4,263.5c0,2.5,1.3,4.1,3.2,4.1c1.8,0,2.5-1,2.8-1.8h1.4c-0.4,1.4-1.6,3.1-4.3,3.1
			c-3.3,0-4.6-2.7-4.6-5.4c0-3.1,1.5-5.6,4.7-5.6c3.3,0,4.4,2.8,4.4,4.9c0,0.3,0,0.6,0,0.9H713.4z M719.6,262.4c0-1.9-1-3.5-3-3.5
			c-2,0-2.9,1.4-3.2,3.5H719.6z"/>
		<path fill="#FFFFFF" d="M723.5,260.9c0-1.6,0-2.4,0-2.9h1.4c0,0.3,0,1.1,0,2.3c0.6-1.5,1.9-2.5,3.6-2.5v1.5
			c-2.2,0.1-3.6,1.5-3.6,4v5.3h-1.4V260.9z"/>
		<path fill="#FFFFFF" d="M736.4,258c1.4,5.2,2.3,8.2,2.5,9.2h0c0.2-0.9,1.1-3.9,2.7-9.2h1.4c1.8,6.3,2.4,8.1,2.6,9h0
			c0.3-1.1,0.7-2.7,2.5-9h1.5l-3.3,10.6h-1.5c-1.1-3.8-2.3-7.9-2.5-9h0c-0.2,1.1-1.3,4.6-2.6,9H738l-3.1-10.6H736.4z"/>
		<path fill="#FFFFFF" d="M753.2,253.1v6.6c0.6-1,1.6-1.9,3.4-1.9c1.6,0,3.6,0.8,3.6,4.1v6.7h-1.4v-6.5c0-2-0.9-3.1-2.5-3.1
			c-2,0-3,1.3-3,3.7v5.8h-1.4v-15.4H753.2z"/>
		<path fill="#FFFFFF" d="M771,266.4c0,0.9,0.1,1.8,0.1,2.1h-1.3c-0.1-0.2-0.1-0.7-0.2-1.5c-0.4,0.7-1.3,1.8-3.4,1.8
			c-2.5,0-3.5-1.6-3.5-3.2c0-2.3,1.8-3.4,5-3.4c0.8,0,1.5,0,1.9,0v-1c0-1-0.3-2.3-2.5-2.3c-2,0-2.3,1-2.5,1.9h-1.4
			c0.1-1.3,0.9-3,3.9-3c2.5,0,3.9,1,3.9,3.4V266.4z M769.6,263.3c-0.4,0-1.3,0-1.9,0c-2.2,0-3.5,0.6-3.5,2.3c0,1.2,0.9,2.1,2.3,2.1
			c2.8,0,3.2-1.9,3.2-4V263.3z"/>
		<path fill="#FFFFFF" d="M772.8,258h1.9v-3.2h1.4v3.2h2.4v1.2h-2.4v6.6c0,1.1,0.3,1.7,1.2,1.7c0.3,0,0.7,0,1-0.1v1.1
			c-0.4,0.2-1,0.2-1.4,0.2c-1.5,0-2.2-0.8-2.2-2.5v-7h-1.9V258z"/>
		<path fill="#FFFFFF" d="M784.9,267.4l6.4-8.1h-6.1V258h7.7v1.3l-6.3,8.1h6.6l-0.3,1.2h-8V267.4z"/>
		<path fill="#FFFFFF" d="M804,263.3c0,3-1.7,5.6-4.9,5.6c-2.9,0-4.7-2.3-4.7-5.5c0-3.1,1.7-5.5,4.8-5.5
			C802.1,257.7,804,259.9,804,263.3z M795.9,263.3c0,2.4,1.3,4.3,3.3,4.3c2.1,0,3.3-1.8,3.3-4.3c0-2.4-1.2-4.3-3.4-4.3
			C797,259,795.9,260.8,795.9,263.3z"/>
		<path fill="#FFFFFF" d="M806.5,260.7c0-0.9,0-1.8,0-2.7h1.4c0,0.3,0.1,1.6,0.1,1.9c0.4-1,1.3-2.1,3.4-2.1c1.9,0,3.5,1.1,3.5,4v6.8
			h-1.4v-6.6c0-1.8-0.7-2.9-2.4-2.9c-2.3,0-3.1,1.8-3.1,4v5.5h-1.4V260.7z"/>
		<path fill="#FFFFFF" d="M818.8,263.5c0,2.5,1.3,4.1,3.2,4.1c1.8,0,2.5-1,2.8-1.8h1.4c-0.4,1.4-1.6,3.1-4.3,3.1
			c-3.3,0-4.6-2.7-4.6-5.4c0-3.1,1.5-5.6,4.7-5.6c3.3,0,4.4,2.8,4.4,4.9c0,0.3,0,0.6,0,0.9H818.8z M825,262.4c0-1.9-1-3.5-3-3.5
			c-2,0-2.9,1.4-3.2,3.5H825z"/>
		<path fill="#FFFFFF" d="M834.5,258c1.9,5.6,2.9,8.2,3.2,9.3h0c0.4-1.2,1.2-3.7,3.1-9.3h1.4l-3.9,11.1c-1.1,3.1-1.9,3.8-3.9,3.8
			c-0.4,0-0.7,0-1-0.1v-1.3c0.3,0,0.6,0.1,0.9,0.1c1.4,0,1.9-0.7,2.6-2.7l-4-11H834.5z"/>
		<path fill="#FFFFFF" d="M853,263.3c0,3-1.7,5.6-4.9,5.6c-2.9,0-4.7-2.3-4.7-5.5c0-3.1,1.7-5.5,4.8-5.5
			C851.1,257.7,853,259.9,853,263.3z M844.8,263.3c0,2.4,1.3,4.3,3.3,4.3c2.1,0,3.3-1.8,3.3-4.3c0-2.4-1.2-4.3-3.4-4.3
			C845.9,259,844.8,260.8,844.8,263.3z"/>
		<path fill="#FFFFFF" d="M863.6,265.5c0,1,0,2.6,0,3.1h-1.4c0-0.3-0.1-0.9-0.1-1.7c-0.5,1.2-1.5,2-3.3,2c-1.6,0-3.5-0.7-3.5-3.8v-7
			h1.4v6.7c0,1.5,0.5,2.9,2.4,2.9c2.2,0,3-1.2,3-4.1V258h1.4V265.5z"/>
		<path fill="#FFFFFF" d="M865.8,258.4c0.6-1.7,0.9-4.1,1-5.3h1.5c-0.1,1.7-0.7,4.1-1.2,5.3H865.8z"/>
		<path fill="#FFFFFF" d="M870.5,260.9c0-1.6,0-2.4,0-2.9h1.4c0,0.3,0,1.1,0,2.3c0.6-1.5,1.9-2.5,3.6-2.5v1.5
			c-2.2,0.1-3.6,1.5-3.6,4v5.3h-1.4V260.9z"/>
		<path fill="#FFFFFF" d="M878.2,263.5c0,2.5,1.3,4.1,3.2,4.1c1.8,0,2.5-1,2.8-1.8h1.4c-0.4,1.4-1.6,3.1-4.3,3.1
			c-3.3,0-4.6-2.7-4.6-5.4c0-3.1,1.5-5.6,4.7-5.6c3.3,0,4.4,2.8,4.4,4.9c0,0.3,0,0.6,0,0.9H878.2z M884.4,262.4c0-1.9-1-3.5-3-3.5
			c-2,0-2.9,1.4-3.2,3.5H884.4z"/>
		<path fill="#FFFFFF" d="M893.7,253.1h1.4v2.2h-1.4V253.1z M893.7,258h1.4v10.6h-1.4V258z"/>
		<path fill="#FFFFFF" d="M898.5,260.7c0-0.9,0-1.8,0-2.7h1.4c0,0.3,0.1,1.6,0.1,1.9c0.4-1,1.3-2.1,3.4-2.1c1.9,0,3.5,1.1,3.5,4v6.8
			h-1.4v-6.6c0-1.8-0.7-2.9-2.4-2.9c-2.3,0-3.1,1.8-3.1,4v5.5h-1.4V260.7z"/>
		<path fill="#FFFFFF" d="M912.9,264.2v-0.3c0-1,0.3-2.1,1.9-3.6c1.3-1.2,1.5-2.1,1.5-3c0-1.1-0.7-2.4-2.5-2.4c-1.7,0-2.5,1-2.8,2.6
			h-1.4c0.1-1.1,0.8-3.8,4.2-3.8c2.9,0,4,2.1,4,3.7c0,1.5-0.5,2.5-2,3.9c-1.1,1-1.5,1.7-1.5,2.8v0.2H912.9z M912.9,268.6v-2.7h1.4
			v2.7H912.9z"/>
		<path fill="#FFFFFF" d="M659.1,286.7h-7.4v5.7h8.1l-0.2,1.3h-9.4v-14.7h9.2v1.3h-7.8v5h7.4V286.7z"/>
		<path fill="#FFFFFF" d="M662.2,285.9c0-0.9,0-1.8,0-2.7h1.4c0,0.3,0.1,1.6,0.1,1.9c0.4-1,1.3-2.1,3.4-2.1c1.9,0,3.5,1.1,3.5,4v6.8
			h-1.4v-6.6c0-1.8-0.7-2.9-2.4-2.9c-2.3,0-3.1,1.8-3.1,4v5.5h-1.4V285.9z"/>
		<path fill="#FFFFFF" d="M672.4,283.2h1.9V280h1.4v3.2h2.4v1.2h-2.4v6.6c0,1.1,0.3,1.7,1.2,1.7c0.3,0,0.7,0,1-0.1v1.1
			c-0.4,0.2-1,0.2-1.4,0.2c-1.5,0-2.2-0.8-2.2-2.5v-7h-1.9V283.2z"/>
		<path fill="#FFFFFF" d="M680.8,288.7c0,2.5,1.3,4.1,3.2,4.1c1.8,0,2.5-1,2.8-1.8h1.4c-0.4,1.4-1.6,3.1-4.3,3.1
			c-3.3,0-4.6-2.7-4.6-5.4c0-3.1,1.5-5.6,4.7-5.6c3.3,0,4.4,2.8,4.4,4.9c0,0.3,0,0.6,0,0.9H680.8z M687.1,287.6c0-1.9-1-3.5-3-3.5
			c-2,0-2.9,1.4-3.2,3.5H687.1z"/>
		<path fill="#FFFFFF" d="M691,286.1c0-1.6,0-2.4,0-2.9h1.4c0,0.3,0,1.1,0,2.3c0.6-1.5,1.9-2.5,3.6-2.5v1.5c-2.2,0.1-3.6,1.5-3.6,4
			v5.3H691V286.1z"/>
		<path fill="#FFFFFF" d="M703.6,283.2c1.9,5.6,2.9,8.2,3.2,9.3h0c0.4-1.2,1.2-3.7,3.1-9.3h1.4l-3.9,11.1c-1.1,3.1-1.9,3.8-3.9,3.8
			c-0.4,0-0.7,0-1-0.1v-1.3c0.3,0,0.6,0.1,0.9,0.1c1.4,0,1.9-0.7,2.6-2.7l-4-11H703.6z"/>
		<path fill="#FFFFFF" d="M722.1,288.5c0,3-1.7,5.6-4.9,5.6c-2.9,0-4.7-2.3-4.7-5.5c0-3.1,1.7-5.5,4.8-5.5
			C720.2,282.9,722.1,285.1,722.1,288.5z M713.9,288.5c0,2.4,1.3,4.3,3.3,4.3c2.1,0,3.3-1.8,3.3-4.3c0-2.4-1.2-4.3-3.4-4.3
			C715,284.2,713.9,286,713.9,288.5z"/>
		<path fill="#FFFFFF" d="M732.7,290.7c0,1,0,2.6,0,3.1h-1.4c0-0.3-0.1-0.9-0.1-1.7c-0.5,1.2-1.5,2-3.3,2c-1.6,0-3.5-0.7-3.5-3.8v-7
			h1.4v6.7c0,1.5,0.5,2.9,2.4,2.9c2.2,0,3-1.2,3-4.1v-5.5h1.4V290.7z"/>
		<path fill="#FFFFFF" d="M736,286.1c0-1.6,0-2.4,0-2.9h1.4c0,0.3,0,1.1,0,2.3c0.6-1.5,1.9-2.5,3.6-2.5v1.5c-2.2,0.1-3.6,1.5-3.6,4
			v5.3H736V286.1z"/>
		<path fill="#FFFFFF" d="M756,291.6c0,0.9,0.1,1.8,0.1,2.1h-1.3c-0.1-0.2-0.1-0.7-0.2-1.5c-0.4,0.7-1.3,1.8-3.4,1.8
			c-2.5,0-3.5-1.6-3.5-3.2c0-2.3,1.8-3.4,5-3.4c0.8,0,1.5,0,1.9,0v-1c0-1-0.3-2.3-2.5-2.3c-2,0-2.3,1-2.5,1.9h-1.4
			c0.1-1.3,0.9-3,3.9-3c2.5,0,3.9,1,3.9,3.4V291.6z M754.7,288.5c-0.4,0-1.3,0-1.9,0c-2.2,0-3.5,0.6-3.5,2.3c0,1.2,0.9,2.1,2.3,2.1
			c2.8,0,3.2-1.9,3.2-4V288.5z"/>
		<path fill="#FFFFFF" d="M767.8,278.3v12.4c0,1,0,2,0,3h-1.4c0-0.3-0.1-1.2-0.1-1.6c-0.5,1.2-1.7,1.9-3.4,1.9
			c-2.7,0-4.4-2.2-4.4-5.4c0-3.3,1.8-5.7,4.7-5.7c2,0,2.8,0.8,3.1,1.5v-6.1H767.8z M760,288.6c0,2.7,1.4,4.2,3.1,4.2
			c2.6,0,3.3-1.9,3.3-4.5c0-2.6-0.6-4.1-3.1-4.1C761.3,284.2,760,285.8,760,288.6z"/>
		<path fill="#FFFFFF" d="M779.5,278.3v12.4c0,1,0,2,0,3h-1.4c0-0.3-0.1-1.2-0.1-1.6c-0.5,1.2-1.7,1.9-3.4,1.9
			c-2.7,0-4.4-2.2-4.4-5.4c0-3.3,1.8-5.7,4.7-5.7c2,0,2.8,0.8,3.1,1.5v-6.1H779.5z M771.8,288.6c0,2.7,1.4,4.2,3.1,4.2
			c2.6,0,3.3-1.9,3.3-4.5c0-2.6-0.6-4.1-3.1-4.1C773.1,284.2,771.8,285.8,771.8,288.6z"/>
		<path fill="#FFFFFF" d="M782.8,286.1c0-1.6,0-2.4,0-2.9h1.4c0,0.3,0,1.1,0,2.3c0.6-1.5,1.9-2.5,3.6-2.5v1.5
			c-2.2,0.1-3.6,1.5-3.6,4v5.3h-1.4V286.1z"/>
		<path fill="#FFFFFF" d="M790.5,288.7c0,2.5,1.3,4.1,3.2,4.1c1.8,0,2.5-1,2.8-1.8h1.4c-0.4,1.4-1.6,3.1-4.3,3.1
			c-3.3,0-4.6-2.7-4.6-5.4c0-3.1,1.5-5.6,4.7-5.6c3.3,0,4.4,2.8,4.4,4.9c0,0.3,0,0.6,0,0.9H790.5z M796.7,287.6c0-1.9-1-3.5-3-3.5
			c-2,0-2.9,1.4-3.2,3.5H796.7z"/>
		<path fill="#FFFFFF" d="M801.1,290.8c0.3,1.3,1.3,2,2.8,2c1.7,0,2.4-0.8,2.4-1.9c0-1.1-0.5-1.6-2.7-2.2c-2.9-0.7-3.5-1.6-3.5-3
			c0-1.5,1.1-2.9,3.6-2.9c2.5,0,3.7,1.5,3.8,3h-1.4c-0.2-0.8-0.8-1.8-2.5-1.8c-1.7,0-2.2,0.8-2.2,1.6c0,0.9,0.5,1.3,2.5,1.8
			c3.1,0.7,3.8,1.8,3.8,3.3c0,1.9-1.5,3.2-3.9,3.2c-2.6,0-3.9-1.3-4.2-3.2H801.1z"/>
		<path fill="#FFFFFF" d="M810.7,290.8c0.3,1.3,1.3,2,2.8,2c1.7,0,2.4-0.8,2.4-1.9c0-1.1-0.5-1.6-2.7-2.2c-2.9-0.7-3.5-1.6-3.5-3
			c0-1.5,1.1-2.9,3.6-2.9c2.5,0,3.7,1.5,3.8,3h-1.4c-0.2-0.8-0.8-1.8-2.5-1.8c-1.7,0-2.2,0.8-2.2,1.6c0,0.9,0.5,1.3,2.5,1.8
			c3.1,0.7,3.8,1.8,3.8,3.3c0,1.9-1.5,3.2-3.9,3.2c-2.6,0-3.9-1.3-4.2-3.2H810.7z"/>
		<path fill="#FFFFFF" d="M823.8,283.2h1.9V280h1.4v3.2h2.4v1.2h-2.4v6.6c0,1.1,0.3,1.7,1.2,1.7c0.3,0,0.7,0,1-0.1v1.1
			c-0.4,0.2-1,0.2-1.4,0.2c-1.5,0-2.2-0.8-2.2-2.5v-7h-1.9V283.2z"/>
		<path fill="#FFFFFF" d="M840.4,288.5c0,3-1.7,5.6-4.9,5.6c-2.9,0-4.7-2.3-4.7-5.5c0-3.1,1.7-5.5,4.8-5.5
			C838.5,282.9,840.4,285.1,840.4,288.5z M832.3,288.5c0,2.4,1.3,4.3,3.3,4.3c2.1,0,3.3-1.8,3.3-4.3c0-2.4-1.2-4.3-3.4-4.3
			C833.3,284.2,832.3,286,832.3,288.5z"/>
		<path fill="#FFFFFF" d="M848.6,293.8v-9.3h-1.8v-1.2h1.8v-1.4c0-1.9,0.6-3.7,3-3.7c0.3,0,0.8,0.1,1.1,0.1v1.3
			c-0.3-0.1-0.7-0.1-1-0.1c-1.2,0-1.6,0.8-1.6,2.5v1.3h2.2v1.2H850v9.3H848.6z"/>
		<path fill="#FFFFFF" d="M853.8,278.3h1.4v2.2h-1.4V278.3z M853.8,283.2h1.4v10.6h-1.4V283.2z"/>
		<path fill="#FFFFFF" d="M858.6,285.9c0-0.9,0-1.8,0-2.7h1.4c0,0.3,0.1,1.6,0.1,1.9c0.4-1,1.3-2.1,3.4-2.1c1.9,0,3.5,1.1,3.5,4v6.8
			h-1.4v-6.6c0-1.8-0.7-2.9-2.4-2.9c-2.3,0-3.1,1.8-3.1,4v5.5h-1.4V285.9z"/>
		<path fill="#FFFFFF" d="M878.7,278.3v12.4c0,1,0,2,0,3h-1.4c0-0.3-0.1-1.2-0.1-1.6c-0.5,1.2-1.7,1.9-3.4,1.9
			c-2.7,0-4.4-2.2-4.4-5.4c0-3.3,1.8-5.7,4.7-5.7c2,0,2.8,0.8,3.1,1.5v-6.1H878.7z M870.9,288.6c0,2.7,1.4,4.2,3.1,4.2
			c2.6,0,3.3-1.9,3.3-4.5c0-2.6-0.6-4.1-3.1-4.1C872.2,284.2,870.9,285.8,870.9,288.6z"/>
		<path fill="#FFFFFF" d="M896.2,288.5c0,3-1.7,5.6-4.9,5.6c-2.9,0-4.7-2.3-4.7-5.5c0-3.1,1.7-5.5,4.8-5.5
			C894.3,282.9,896.2,285.1,896.2,288.5z M888,288.5c0,2.4,1.3,4.3,3.3,4.3c2.1,0,3.3-1.8,3.3-4.3c0-2.4-1.2-4.3-3.4-4.3
			C889.1,284.2,888,286,888,288.5z"/>
		<path fill="#FFFFFF" d="M906.8,290.7c0,1,0,2.6,0,3.1h-1.4c0-0.3-0.1-0.9-0.1-1.7c-0.5,1.2-1.5,2-3.3,2c-1.6,0-3.5-0.7-3.5-3.8v-7
			h1.4v6.7c0,1.5,0.5,2.9,2.4,2.9c2.2,0,3-1.2,3-4.1v-5.5h1.4V290.7z"/>
		<path fill="#FFFFFF" d="M908.7,283.2h1.9V280h1.4v3.2h2.4v1.2H912v6.6c0,1.1,0.3,1.7,1.2,1.7c0.3,0,0.7,0,1-0.1v1.1
			c-0.4,0.2-1,0.2-1.4,0.2c-1.5,0-2.2-0.8-2.2-2.5v-7h-1.9V283.2z"/>
		<path fill="#FFFFFF" d="M916.1,293.8v-2.9h1.4v2.9H916.1z"/>
	</g>
</g>
<g>
	<g>
		<path fill="#FFFFFF" d="M468.4,51.5H461v-4.3h19.9v4.3h-7.3v19.9h-5.2V51.5z"/>
		<path fill="#FFFFFF" d="M484.1,47.2h5.2v9.4h9.7v-9.4h5.2v24.1h-5.2V60.9h-9.7v10.4h-5.2V47.2z"/>
		<path fill="#FFFFFF" d="M526.6,60.9h-11.5V67h12.7l-0.6,4.3H510V47.2h17.1v4.3h-12v5.2h11.5V60.9z"/>
		<path fill="#FFFFFF" d="M560.6,63.9c-1,4.5-4.4,7.8-10.4,7.8c-7.7,0-11.3-5.4-11.3-12.3c0-6.6,3.7-12.5,11.5-12.5
			c6.4,0,9.5,3.8,10.1,7.8h-5.2c-0.5-1.9-1.8-3.7-5.1-3.7c-4.3,0-6,3.9-6,8.3c0,4.1,1.4,8.4,6.1,8.4c3.4,0,4.5-2.3,4.9-3.7H560.6z"
			/>
		<path fill="#FFFFFF" d="M587.3,59.2c0,6.7-4,12.5-11.9,12.5c-7.6,0-11.5-5.5-11.5-12.4c0-7,4.4-12.4,11.9-12.4
			C582.8,46.8,587.3,51.8,587.3,59.2z M569.3,59.1c0,4.7,2.1,8.3,6.3,8.3c4.6,0,6.3-3.9,6.3-8.2c0-4.6-1.9-8.2-6.4-8.2
			C571.2,51.1,569.3,54.4,569.3,59.1z"/>
		<path fill="#FFFFFF" d="M591.8,71.3V47.2h6.5c3,5.4,8.6,15.2,9.7,17.8h0.1c-0.3-2.5-0.3-6.7-0.3-10.7v-7.2h4.7v24.1h-6.1
			c-2.6-4.7-8.8-15.9-10-18.7h-0.1c0.2,2.1,0.2,7.1,0.2,11.4v7.3H591.8z"/>
		<path fill="#FFFFFF" d="M621.8,64.2c0.5,2.4,2.3,3.5,5.1,3.5c2.8,0,4-1.1,4-2.9c0-2-1.2-2.8-5.3-3.8c-6.6-1.5-8.2-3.9-8.2-7.2
			c0-4.2,3.1-7.1,8.9-7.1c6.4,0,9,3.4,9.3,7h-5.3c-0.3-1.5-1.1-3.1-4.2-3.1c-2.1,0-3.4,0.9-3.4,2.6c0,1.7,1,2.4,4.9,3.3
			c7,1.7,8.6,4.3,8.6,7.7c0,4.4-3.3,7.4-9.7,7.4c-6.1,0-9.4-3-9.9-7.4H621.8z"/>
		<path fill="#FFFFFF" d="M645.3,51.5H638v-4.3h19.9v4.3h-7.3v19.9h-5.2V51.5z"/>
		<path fill="#FFFFFF" d="M666.2,61.6v9.7h-5.1V47.2h10.6c5.3,0,8.1,2.9,8.1,6.6c0,3.2-1.8,5-3.5,5.7c1.2,0.4,3,1.7,3,6v1.2
			c0,1.6,0,3.5,0.3,4.6h-4.9c-0.4-1-0.5-2.9-0.5-5.4v-0.4c0-2.6-0.7-3.9-4.6-3.9H666.2z M666.2,57.5h4.4c2.9,0,4-1.1,4-3.1
			c0-2-1.3-3.1-3.8-3.1h-4.5V57.5z"/>
		<path fill="#FFFFFF" d="M689.1,47.2v14.4c0,4.6,2.4,6,5,6c3,0,4.9-1.6,4.9-6V47.2h5.2v14.1c0,8.3-4.8,10.4-10.2,10.4
			c-5.4,0-10.1-2.2-10.1-10.3V47.2H689.1z"/>
		<path fill="#FFFFFF" d="M730.1,63.9c-1,4.5-4.4,7.8-10.4,7.8c-7.7,0-11.3-5.4-11.3-12.3c0-6.6,3.7-12.5,11.5-12.5
			c6.4,0,9.5,3.8,10.1,7.8h-5.2c-0.5-1.9-1.8-3.7-5.1-3.7c-4.3,0-6,3.9-6,8.3c0,4.1,1.4,8.4,6.1,8.4c3.4,0,4.5-2.3,4.9-3.7H730.1z"
			/>
		<path fill="#FFFFFF" d="M739.3,51.5H732v-4.3h19.9v4.3h-7.3v19.9h-5.2V51.5z"/>
		<path fill="#FFFFFF" d="M760.3,47.2v24.1h-5.2V47.2H760.3z"/>
		<path fill="#FFFFFF" d="M788.3,59.2c0,6.7-4,12.5-11.9,12.5c-7.6,0-11.5-5.5-11.5-12.4c0-7,4.4-12.4,11.9-12.4
			C783.8,46.8,788.3,51.8,788.3,59.2z M770.3,59.1c0,4.7,2.1,8.3,6.3,8.3c4.6,0,6.3-3.9,6.3-8.2c0-4.6-1.9-8.2-6.4-8.2
			C772.2,51.1,770.3,54.4,770.3,59.1z"/>
		<path fill="#FFFFFF" d="M792.8,71.3V47.2h6.5c3,5.4,8.6,15.2,9.7,17.8h0.1c-0.3-2.5-0.3-6.7-0.3-10.7v-7.2h4.7v24.1h-6.1
			c-2.6-4.7-8.8-15.9-10-18.7h-0.1c0.2,2.1,0.2,7.1,0.2,11.4v7.3H792.8z"/>
		<path fill="#FFFFFF" d="M827.7,47.2h10c5.1,0,8.6,2.9,8.6,7.5c0,5.2-4,7.6-8.7,7.6H833v9h-5.2V47.2z M833,58.1h4
			c2.4,0,4.1-0.9,4.1-3.4c0-2.5-1.8-3.4-4-3.4H833V58.1z"/>
		<path fill="#FFFFFF" d="M850.6,47.2h5.2V67h12l-0.6,4.3h-16.6V47.2z"/>
		<path fill="#FFFFFF" d="M875.6,65.7l-1.9,5.6h-5.1l8.2-24.1h6.6l8.5,24.1h-5.5l-2-5.6H875.6z M883.3,61.5
			c-1.7-5.1-2.8-8.3-3.4-10.5h0c-0.6,2.4-1.8,6.2-3.2,10.5H883.3z"/>
		<path fill="#FFFFFF" d="M895.2,71.3V47.2h6.5c3,5.4,8.6,15.2,9.7,17.8h0.1c-0.3-2.5-0.3-6.7-0.3-10.7v-7.2h4.7v24.1h-6.1
			c-2.6-4.7-8.8-15.9-10-18.7h-0.1c0.2,2.1,0.2,7.1,0.2,11.4v7.3H895.2z"/>
	</g>
</g>
</svg>
