<?xml version="1.0" encoding="utf-8"?>
<!-- Generator: Adobe Illustrator 25.0.0, SVG Export Plug-In . SVG Version: 6.00 Build 0)  -->
<svg version="1.1" id="Layer_1" xmlns="http://www.w3.org/2000/svg" xmlns:xlink="http://www.w3.org/1999/xlink" x="0px" y="0px"
	 viewBox="0 0 221.5 247.4" enable-background="new 0 0 221.5 247.4" xml:space="preserve">
<g>
	<g>
	</g>
</g>
<g>
	<circle fill="#D2D3D4" cx="131.3" cy="116.7" r="90.2"/>
	<path fill="#1A1A1A" d="M204.1,165c-1.7-7.8-4.4-15.3-7.2-22.8c-3.6-9.5-7.6-18.8-11.8-28c-0.4-0.8-1.6-4.6-2.7-6c0,0,0-0.1,0-0.1
		c-0.4-1-0.9-2-1.4-2.9c-2.7-5.3-5-10.8-5.7-16.9c-1.5-13.5-6.9-25.7-13.9-37.2c-3.6-5.9-5.7-6.8-12.6-5.6c2.7,4.1,5.9,7.7,8.9,11.4
		c-3.1-3.8-6.3-7.4-8.9-11.4c-3.3-3.2-5.8-7-8.7-10.5c-1.6-1.9-3.4-3.2-5.9-3c-0.7,0.1-1.3,0.3-1.8,0.5c-0.4,0.2-0.7,0.4-1.1,0.6
		c0.3-0.2,0.7-0.4,1.1-0.6c0.6-0.2,1.2-0.4,1.8-0.5c-0.6-2.1-1.2-4.3-1.9-6.4c-3.4-9.4-7.8-18-17.8-22c-0.9-0.1-1.7-0.3-2.6-0.4
		c-6-0.7-12.1-1.2-17.8,1.6c-2.2,1.1-4.3,1.3-6.7,1.4C75.9,6.5,66,10.2,59.9,20.8c-3.5,6-5.2,12.6-6.2,19.3
		c-0.7,5.2-1,10.4-2.7,15.5C47.5,66.2,42.3,75.2,30.9,79c-0.7,0.4-1.5,0.8-2.2,1.3c0,0,0,0,0,0c-3.5,1.7-3.6,3.5-8.3,5.8
		c-0.4,0.2-0.8,0.5-1.3,0.8c-0.1,0.1-0.3,0.2-0.4,0.2c-0.1,0.1-0.2,0.2-0.4,0.3c-1,0.8-1.9,1.8-2.9,2.9c-2.9,3.1-5.2,6.6-6.6,10.7
		c-1.9,4.2-0.5,6.2-0.2,10.9c0,0.6,0.1,1.1,0.2,1.6c0,0.5,0.1,1.1,0.1,1.6c0.6,3,2.5,5.6,2.4,8.7c-0.6,3.5-2.1,9.1-3.1,14.5
		c-0.1,0.6-0.2,1.1-0.3,1.5c-0.3,0.5-0.7,1-1,1.5c-2.3,3.6-3.8,7.6-4.8,11.8c-0.9,3.6-0.4,7.2,1.2,10.5
		c5.8,12.3,22.1,21.8,35.8,20.8c0.2,2.6,0.5,5.2,0.6,7.9c0.3,8.6,1.5,17.1,4.3,25.2c3.1,9.1,8.5,16.1,18.4,18.6
		c3.1,0.8,5.7,0.6,7.8-2.1c0.6-0.8,1.2-1.9,2.4-2c0.1,0.7,0.2,1.4,0.3,2c0.8,4.8,2.2,6,7,5.8c1.7-0.1,3.3,0.3,4.9,0.6
		c12.1,2.1,24.3,4.1,36.6,4.4c11.1,0.3,21.4-1.4,29.5-9.9c2-2,4.5-3.3,7.2-4.3c3.1-1.1,4.5-3.5,4.1-6.9c-0.3-2.6-0.9-5.2-1.3-7.8
		c-1.5-9.4-3.1-18.9-4.6-28.3c-1.4-6.4-0.9-12.8-1-19.3c2.6,1.8,4.1,4.6,5.9,7.1c3.4,4.7,7.6,8.7,10.5,13.8c0.1,0.1,3.2,6.2,16,5.7
		c3.2-0.3,8.6-5.9,9.8-7C204.5,181.6,206.1,173.8,204.1,165z M39.2,180.1C39.2,180.2,39.2,180.2,39.2,180.1
		C39.2,180.2,39.2,180.2,39.2,180.1z M35.9,179.6c-0.7,0.1-1.4,0.2-2.1,0.2C34.5,179.7,35.2,179.6,35.9,179.6z M127.6,80.4
		c-0.5,0.8-1,1.6-1.5,2.4C126.7,82,127.2,81.2,127.6,80.4z M102.1,129.5c0.5-0.9,0.9-1.7,1.4-2.5
		C103.1,127.8,102.6,128.6,102.1,129.5L102.1,129.5z M111.6,134.3c0.2,0,0.4,0,0.5,0C111.9,134.3,111.8,134.4,111.6,134.3
		L111.6,134.3z M111.5,134.4c-0.1,0.1-0.2,0.3-0.3,0.3C111.3,134.6,111.5,134.5,111.5,134.4z M111.2,134.7c-0.1-0.1-0.2-0.1-0.1-0.2
		C111,134.5,111,134.6,111.2,134.7z M111.3,145.6c0.2-0.3,0.3-0.6,0.5-0.9c1.9-2.8,3.8-5.6,4.8-8.8c0.1-0.2,0.1-0.5,0.2-0.7
		c0,0.2-0.1,0.5-0.2,0.7c-1,3.3-2.9,6-4.8,8.8C111.7,144.9,111.5,145.3,111.3,145.6C111.3,145.6,111.3,145.6,111.3,145.6z
		 M116.3,133.1c-0.4-0.3-0.7-0.4-1-0.4C115.6,132.7,115.9,132.8,116.3,133.1c0.2,0.2,0.4,0.4,0.5,0.6
		C116.6,133.5,116.5,133.3,116.3,133.1z M114.8,126.8c-0.1,0.7-0.6,1.5-0.8,2.3C114.2,128.3,114.7,127.5,114.8,126.8
		c0.1-0.4,0-0.9-0.4-1.3c-0.5-0.5-1.1-0.6-1.7-0.5c0.6-0.1,1.2,0,1.7,0.5C114.8,125.9,114.9,126.3,114.8,126.8z M110.8,125.7
		c-1.4,0.6-2.8,1.2-4.2,1.8C108,126.8,109.4,126.2,110.8,125.7c0.4-0.2,0.8-0.3,1.2-0.5C111.6,125.3,111.2,125.5,110.8,125.7z
		 M108.7,116.2C108.7,116.2,108.7,116.2,108.7,116.2C108.7,116.2,108.7,116.2,108.7,116.2z M107.9,114.8c0,0-0.1-0.1-0.1-0.1
		C107.8,114.8,107.9,114.8,107.9,114.8c0.1,0.1,0.2,0.2,0.3,0.2C108.1,115,108,114.9,107.9,114.8z M105,115.6
		c-0.2,0.2-0.3,0.4-0.5,0.6c-0.2,0.2-0.3,0.4-0.5,0.6c0.2-0.2,0.3-0.4,0.5-0.6C104.7,116,104.8,115.8,105,115.6
		c0.2-0.2,0.3-0.3,0.5-0.5C105.3,115.3,105.2,115.4,105,115.6z M105.6,115c0.2-0.2,0.4-0.3,0.6-0.4C106,114.8,105.8,114.9,105.6,115
		z M106.6,114.5c0.1,0,0.3,0,0.4,0C106.8,114.5,106.7,114.5,106.6,114.5z M106.2,112.1c-2.3,0.3-4.6,0.3-6.7-0.1
		c-1.3-0.3-2.5-0.6-3.8-1c1.2,0.4,2.5,0.7,3.8,1C101.6,112.3,103.9,112.4,106.2,112.1c7-0.9,14.4-4.9,16.9-10.1
		c0.6-2.5,2.2-3.5,4.5-3.6c-2.2,0.1-3.8,1-4.5,3.6C120.6,107.1,113.2,111.1,106.2,112.1z M89.1,122c0,1,0,2,0,2.9
		c-0.1,2.4-0.3,4.9-0.6,7.3c-0.1,1-0.3,1.9-0.5,2.8c-0.2,0.9-0.4,1.9-0.7,2.8s-0.6,1.8-0.9,2.8c0.3-0.9,0.7-1.8,0.9-2.8
		s0.5-1.9,0.7-2.8c0.2-0.9,0.4-1.9,0.5-2.8c0.4-2.4,0.5-4.8,0.6-7.3C89.1,124,89.1,123,89.1,122L89.1,122z M121.3,102
		c-1.7-0.2-3.3-0.9-5-1.2c0,0,0,0,0,0C118,101.1,119.6,101.9,121.3,102z M82.6,101.4C82.6,101.4,82.6,101.4,82.6,101.4
		C82.6,101.4,82.6,101.4,82.6,101.4z M81.3,148.6c-0.3,0.2-0.6,0.4-1,0.5C80.7,149,81,148.8,81.3,148.6z M82.6,147.5
		c0.3-0.3,0.5-0.6,0.7-0.9C83.1,146.9,82.8,147.2,82.6,147.5c-0.3,0.3-0.5,0.5-0.8,0.8C82.1,148.1,82.3,147.8,82.6,147.5z
		 M83.4,103.8c0.5,1.1,1,2.1,1.6,3.1c0,0,0,0,0,0C84.4,105.9,83.8,104.9,83.4,103.8z M85.6,107.7c2.3,3,3.1,6.5,3.4,10.1
		C88.7,114.3,88,110.8,85.6,107.7z M109.3,105.3c1.1-0.5,2.1-1.1,3.1-1.7C111.4,104.2,110.4,104.8,109.3,105.3z M68.1,162.3
		c0.2,0,0.4,0,0.6-0.1C68.5,162.2,68.3,162.3,68.1,162.3z M69.2,164c-0.4,0-0.8,0.1-1.2,0.1C68.4,164.1,68.8,164,69.2,164z
		 M57.2,109.9c0.2,0.2,0.4,0.3,0.6,0.5c1,1,2,1.9,3.1,2.8c-1.1-0.9-2.1-1.8-3.1-2.8C57.6,110.3,57.4,110.1,57.2,109.9L57.2,109.9z
		 M42.4,164.6c7.6-0.7,15.1-1.4,22.7-2.1C57.6,163.2,50,163.9,42.4,164.6L42.4,164.6z M41.9,166.7c1.9-0.2,3.9-0.4,5.8-0.6
		C45.7,166.3,43.8,166.5,41.9,166.7L41.9,166.7z M70.9,176.8c0,0.2,0.1,0.4,0.1,0.6C70.9,177.2,70.9,177,70.9,176.8L70.9,176.8z
		 M70.9,179.7c0-0.2,0-0.5-0.1-0.8C70.9,179.2,70.9,179.4,70.9,179.7z M70.9,177.5L70.9,177.5L70.9,177.5L70.9,177.5z M70.9,176.8
		C70.9,176.8,70.9,176.8,70.9,176.8c0.4,0.2,0.4,0.4,0.1,0.6C71.2,177.2,71.3,177,70.9,176.8z M70.3,120c-1-1-2.2-2-3.7-2.7
		c-0.4-0.2-0.8-0.4-1.2-0.7c0.4,0.2,0.8,0.5,1.2,0.7C68.1,118,69.3,119,70.3,120c1.2,1.3,2,2.8,2.5,4.4
		C72.3,122.7,71.5,121.3,70.3,120z M72.4,135.9c-0.2,0.9-0.3,1.8-0.5,2.6c-0.1,0.7-0.2,1.5-0.3,2.2c-0.1,0.6-0.1,1.2-0.1,1.8
		c0-0.6,0-1.1,0.1-1.8c0.1-0.7,0.2-1.5,0.3-2.2C72.1,137.6,72.2,136.8,72.4,135.9z M71.5,142.5c0,1.7,0.4,3.1,1.1,4.1
		c0.6,0.9,1.4,1.6,2.5,2.1c-1.1-0.5-1.9-1.2-2.5-2.1C71.8,145.6,71.5,144.2,71.5,142.5z M89,165.1c0.2-0.4,0.4-0.8,0.5-1.2
		c0.3-1,0.4-2.1,0.3-3.3c-0.3-4.1-0.3-8,0.1-11.9c-0.4,3.8-0.4,7.8-0.1,11.9c0.1,1.3,0,2.3-0.3,3.3C89.4,164.3,89.3,164.7,89,165.1z
		 M90.8,143c0.4-1.9,0.9-3.7,1.4-5.5C91.7,139.3,91.2,141.1,90.8,143z M102.9,178.8c0.1,0.1,0.1,0.2,0.2,0.2l-0.2,0.8
		C102.8,179.4,102.8,179.1,102.9,178.8z M128.1,79.4c1.2-2.4,1.9-5,2.4-7.7c0,0,0,0,0,0C130,74.4,129.3,77,128.1,79.4z M151.7,75.1
		c-0.6,0.5-1.3,1.1-1.9,1.6C150.4,76.2,151,75.7,151.7,75.1z M161.9,116.8c0.1,0.7,0.2,1.4,0.4,2.3
		C161.3,118.3,161.6,117.5,161.9,116.8z M161.7,143.4c-1.7,0.7-3.3,1.3-5,2c-0.3,0.1-0.8,0.3-1.1,0.5c0.3-0.2,0.7-0.4,1.1-0.5
		C158.3,144.7,160,144.1,161.7,143.4z M157.4,147.2c0.1,0,0.2-0.1,0.3-0.1C157.6,147.1,157.5,147.1,157.4,147.2
		c-0.4,0.2-0.9,0.5-1.4,0.4C156.4,147.6,156.9,147.3,157.4,147.2z M166.9,143.5L166.9,143.5c0.7,3.9,1.4,7.9,2.2,11.8
		C168.3,151.4,167.6,147.5,166.9,143.5C166.9,143.5,166.9,143.5,166.9,143.5z M166.7,142.1c0-0.2-0.1-0.5-0.1-0.7l0,0
		c-0.3-1.3-0.5-2.7-0.8-4c0.3,1.3,0.5,2.7,0.8,4C166.7,141.7,166.7,141.9,166.7,142.1z M130.8,33.4c-0.3,0.2-0.7,0.5-1,0.7
		C130.2,33.9,130.5,33.7,130.8,33.4z M128.4,35.3c-0.3,0.3-0.6,0.5-0.9,0.8C127.8,35.8,128.1,35.6,128.4,35.3z M126.3,40.5
		C126.3,40.5,126.3,40.5,126.3,40.5C126.3,40.5,126.3,40.5,126.3,40.5C126.3,40.5,126.3,40.5,126.3,40.5c-0.1-1.1-0.2-2.3-0.3-3.5
		C126.1,38.2,126.2,39.4,126.3,40.5z M111.7,24.6c-0.8,0.6-1.6,1.1-2.3,1.7C110.5,25.5,110.6,25.2,111.7,24.6z M30.1,173.1
		c0,0.8-0.1,1.7-0.1,2.5C30,174.8,30,174,30.1,173.1z M39.3,183.8c0.1-0.4,0.1-0.8,0.1-1.2C39.4,183,39.4,183.4,39.3,183.8z
		 M39.3,179.6L39.3,179.6c8.9-0.8,17.8-1.7,26.7-2.5c0.1,0,0.2,0,0.2,0c-0.1,0-0.2,0-0.2,0C57,177.9,48.2,178.7,39.3,179.6z
		 M70.3,183c-0.1,0.8-0.6,1.9,1,2h0C69.8,184.9,70.2,183.9,70.3,183z M73.1,230.8c0.1-0.2,0.3-0.5,0.5-0.7
		C73.4,230.3,73.3,230.5,73.1,230.8z M94.1,198.8c1.5-3.1,3-6.3,4.5-9.5C97.1,192.5,95.6,195.7,94.1,198.8z M140.4,98.9
		c-3.3-0.5-6.6-0.8-9.9-0.7c0,0-0.1,0-0.1,0c0,0,0.1,0,0.1,0c-0.1-0.9,0.5-1.5,0.9-2.1c3.2-5.4,5.1-11.1,5.5-17.4
		c3.1,3.1,6.4,3,9.9,0.9l0,0c0.9,4.4,3.8,7.6,7,10.4c2.4,2,4.1,4.1,4.3,7.4c0.3,3.5,1.3,7,2,10.5c0.1,0.3,0.2,0.6,0.3,0.9
		c-0.1-0.3-0.2-0.6-0.3-0.9C154.1,103.6,147.8,100,140.4,98.9z M161.3,113.7c0-0.1-0.1-0.3-0.1-0.4
		C161.3,113.4,161.3,113.6,161.3,113.7z M161.1,112.8c0-0.2-0.1-0.4-0.1-0.5C161.1,112.5,161.1,112.6,161.1,112.8z M161,111.9
		c0-0.3-0.1-0.6-0.1-1C160.9,111.3,160.9,111.6,161,111.9z M160.8,110.7c0-0.2-0.1-0.5-0.1-0.7C160.7,110.3,160.8,110.5,160.8,110.7
		z M160.6,109.7c0-0.2-0.1-0.4-0.2-0.6C160.5,109.3,160.6,109.5,160.6,109.7z M161.4,160.9c-2,1.1-4.5,1.7-5.6,3.5
		C156.9,162.6,159.4,161.9,161.4,160.9c2.2-1.9,4.8-3,7.3-4.3C166.2,157.9,163.6,159,161.4,160.9
		C161.4,160.9,161.4,160.9,161.4,160.9z M170.9,164.7c0.1,0.8,0.3,1.6,0.6,2.4C171.2,166.2,171,165.4,170.9,164.7z"/>
	<path fill="#1A1A1A" stroke="#FFFFFF" stroke-miterlimit="10" d="M212.1,167c-1.7-7.8-4.4-15.3-7.2-22.8c-3.6-9.5-7.6-18.8-11.8-28
		c-0.4-0.8-1.6-4.6-2.7-6c0,0,0-0.1,0-0.1c-0.4-1-0.9-2-1.4-2.9c-2.7-5.3-5-10.8-5.7-16.9c-1.5-13.5-6.9-25.7-13.9-37.2
		c-3.6-5.9-5.7-6.8-12.6-5.6c2.7,4.1,5.9,7.7,8.9,11.4c-3.1-3.8-6.3-7.4-8.9-11.4c-3.3-3.2-5.8-7-8.7-10.5c-1.6-1.9-3.4-3.2-5.9-3
		c-0.7,0.1-1.3,0.3-1.8,0.5c-0.4,0.2-0.7,0.4-1.1,0.6c0.3-0.2,0.7-0.4,1.1-0.6c0.6-0.2,1.2-0.4,1.8-0.5c-0.6-2.1-1.2-4.3-1.9-6.4
		c-3.4-9.4-7.8-18-17.8-22c-0.9-0.1-1.7-0.3-2.6-0.4c-6-0.7-12.1-1.2-17.8,1.6c-2.2,1.1-4.3,1.3-6.7,1.4C83.9,8.5,74,12.2,67.9,22.8
		c-3.5,6-5.2,12.6-6.2,19.3c-0.7,5.2-1,10.4-2.7,15.5C55.5,68.2,50.3,77.2,38.9,81c-0.7,0.4-1.5,0.8-2.2,1.3c0,0,0,0,0,0
		c-3.5,1.7-3.6,3.5-8.3,5.8c-0.4,0.2-0.8,0.5-1.3,0.8c-0.1,0.1-0.3,0.2-0.4,0.2c-0.1,0.1-0.2,0.2-0.4,0.3c-1,0.8-1.9,1.8-2.9,2.9
		c-2.9,3.1-5.2,6.6-6.6,10.7c-1.9,4.2-0.5,6.2-0.2,10.9c0,0.6,0.1,1.1,0.2,1.6c0,0.5,0.1,1.1,0.1,1.6c0.6,3,2.5,5.6,2.4,8.7
		c-0.6,3.5-2.1,9.1-3.1,14.5c-0.1,0.6-0.2,1.1-0.3,1.5c-0.3,0.5-0.7,1-1,1.5c-2.3,3.6-3.8,7.6-4.8,11.8c-0.9,3.6-0.4,7.2,1.2,10.5
		c5.8,12.3,22.1,21.8,35.8,20.8c0.2,2.6,0.5,5.2,0.6,7.9c0.3,8.6,1.5,17.1,4.3,25.2c3.1,9.1,8.5,16.1,18.4,18.6
		c3.1,0.8,5.7,0.6,7.8-2.1c0.6-0.8,1.2-1.9,2.4-2c0.1,0.7,0.2,1.4,0.3,2c0.8,4.8,2.2,6,7,5.8c1.7-0.1,3.3,0.3,4.9,0.6
		c12.1,2.1,24.3,4.1,36.6,4.4c11.1,0.3,21.4-1.4,29.5-9.9c2-2,4.5-3.3,7.2-4.3c3.1-1.1,4.5-3.5,4.1-6.9c-0.3-2.6-0.9-5.2-1.3-7.8
		c-1.5-9.4-3.1-18.9-4.6-28.3c-1.4-6.4-0.9-12.8-1-19.3c2.6,1.8,4.1,4.6,5.9,7.1c3.4,4.7,7.6,8.7,10.5,13.8c0.1,0.1,3.2,6.2,16,5.7
		c3.2-0.3,8.6-5.9,9.8-7C212.5,183.6,214.1,175.8,212.1,167z M47.2,182.1C47.2,182.2,47.2,182.2,47.2,182.1
		C47.2,182.2,47.2,182.2,47.2,182.1z M43.9,181.6c-0.7,0.1-1.4,0.2-2.1,0.2C42.5,181.7,43.2,181.6,43.9,181.6z M135.6,82.4
		c-0.5,0.8-1,1.6-1.5,2.4C134.7,84,135.2,83.2,135.6,82.4z M110.1,131.5c0.5-0.9,0.9-1.7,1.4-2.5
		C111.1,129.8,110.6,130.6,110.1,131.5L110.1,131.5z M119.6,136.3c0.2,0,0.4,0,0.5,0C119.9,136.3,119.8,136.4,119.6,136.3
		L119.6,136.3z M119.5,136.4c-0.1,0.1-0.2,0.3-0.3,0.3C119.3,136.6,119.5,136.5,119.5,136.4z M119.2,136.7c-0.1-0.1-0.2-0.1-0.1-0.2
		C119,136.5,119,136.6,119.2,136.7z M119.3,147.6c0.2-0.3,0.3-0.6,0.5-0.9c1.9-2.8,3.8-5.6,4.8-8.8c0.1-0.2,0.1-0.5,0.2-0.7
		c0,0.2-0.1,0.5-0.2,0.7c-1,3.3-2.9,6-4.8,8.8C119.7,146.9,119.5,147.3,119.3,147.6C119.3,147.6,119.3,147.6,119.3,147.6z
		 M124.3,135.1c-0.4-0.3-0.7-0.4-1-0.4C123.6,134.7,123.9,134.8,124.3,135.1c0.2,0.2,0.4,0.4,0.5,0.6
		C124.6,135.5,124.5,135.3,124.3,135.1z M122.8,128.8c-0.1,0.7-0.6,1.5-0.8,2.3C122.2,130.3,122.7,129.5,122.8,128.8
		c0.1-0.4,0-0.9-0.4-1.3c-0.5-0.5-1.1-0.6-1.7-0.5c0.6-0.1,1.2,0,1.7,0.5C122.8,127.9,122.9,128.3,122.8,128.8z M118.8,127.7
		c-1.4,0.6-2.8,1.2-4.2,1.8C116,128.8,117.4,128.2,118.8,127.7c0.4-0.2,0.8-0.3,1.2-0.5C119.6,127.3,119.2,127.5,118.8,127.7z
		 M116.7,118.2C116.7,118.2,116.7,118.2,116.7,118.2C116.7,118.2,116.7,118.2,116.7,118.2z M115.9,116.8c0,0-0.1-0.1-0.1-0.1
		C115.8,116.8,115.9,116.8,115.9,116.8c0.1,0.1,0.2,0.2,0.3,0.2C116.1,117,116,116.9,115.9,116.8z M113,117.6
		c-0.2,0.2-0.3,0.4-0.5,0.6c-0.2,0.2-0.3,0.4-0.5,0.6c0.2-0.2,0.3-0.4,0.5-0.6C112.7,118,112.8,117.8,113,117.6
		c0.2-0.2,0.3-0.3,0.5-0.5C113.3,117.3,113.2,117.4,113,117.6z M113.6,117c0.2-0.2,0.4-0.3,0.6-0.4C114,116.8,113.8,116.9,113.6,117
		z M114.6,116.5c0.1,0,0.3,0,0.4,0C114.8,116.5,114.7,116.5,114.6,116.5z M114.2,114.1c-2.3,0.3-4.6,0.3-6.7-0.1
		c-1.3-0.3-2.5-0.6-3.8-1c1.2,0.4,2.5,0.7,3.8,1C109.6,114.3,111.9,114.4,114.2,114.1c7-0.9,14.4-4.9,16.9-10.1
		c0.6-2.5,2.2-3.5,4.5-3.6c-2.2,0.1-3.8,1-4.5,3.6C128.6,109.1,121.2,113.1,114.2,114.1z M97.1,124c0,1,0,2,0,2.9
		c-0.1,2.4-0.3,4.9-0.6,7.3c-0.1,1-0.3,1.9-0.5,2.8c-0.2,0.9-0.4,1.9-0.7,2.8s-0.6,1.8-0.9,2.8c0.3-0.9,0.7-1.8,0.9-2.8
		s0.5-1.9,0.7-2.8c0.2-0.9,0.4-1.9,0.5-2.8c0.4-2.4,0.5-4.8,0.6-7.3C97.1,126,97.1,125,97.1,124L97.1,124z M129.3,104
		c-1.7-0.2-3.3-0.9-5-1.2c0,0,0,0,0,0C126,103.1,127.6,103.9,129.3,104z M90.6,103.4C90.6,103.4,90.6,103.4,90.6,103.4
		C90.6,103.4,90.6,103.4,90.6,103.4z M89.3,150.6c-0.3,0.2-0.6,0.4-1,0.5C88.7,151,89,150.8,89.3,150.6z M90.6,149.5
		c0.3-0.3,0.5-0.6,0.7-0.9C91.1,148.9,90.8,149.2,90.6,149.5c-0.3,0.3-0.5,0.5-0.8,0.8C90.1,150.1,90.3,149.8,90.6,149.5z
		 M91.4,105.8c0.5,1.1,1,2.1,1.6,3.1c0,0,0,0,0,0C92.4,107.9,91.8,106.9,91.4,105.8z M93.6,109.7c2.3,3,3.1,6.5,3.4,10.1
		C96.7,116.3,96,112.8,93.6,109.7z M117.3,107.3c1.1-0.5,2.1-1.1,3.1-1.7C119.4,106.2,118.4,106.8,117.3,107.3z M76.1,164.3
		c0.2,0,0.4,0,0.6-0.1C76.5,164.2,76.3,164.3,76.1,164.3z M77.2,166c-0.4,0-0.8,0.1-1.2,0.1C76.4,166.1,76.8,166,77.2,166z
		 M65.2,111.9c0.2,0.2,0.4,0.3,0.6,0.5c1,1,2,1.9,3.1,2.8c-1.1-0.9-2.1-1.8-3.1-2.8C65.6,112.3,65.4,112.1,65.2,111.9L65.2,111.9z
		 M50.4,166.6c7.6-0.7,15.1-1.4,22.7-2.1C65.6,165.2,58,165.9,50.4,166.6L50.4,166.6z M49.9,168.7c1.9-0.2,3.9-0.4,5.8-0.6
		C53.7,168.3,51.8,168.5,49.9,168.7L49.9,168.7z M78.9,178.8c0,0.2,0.1,0.4,0.1,0.6C78.9,179.2,78.9,179,78.9,178.8L78.9,178.8z
		 M78.9,181.7c0-0.2,0-0.5-0.1-0.8C78.9,181.2,78.9,181.4,78.9,181.7z M78.9,179.5L78.9,179.5L78.9,179.5L78.9,179.5z M78.9,178.8
		C78.9,178.8,78.9,178.8,78.9,178.8c0.4,0.2,0.4,0.4,0.1,0.6C79.2,179.2,79.3,179,78.9,178.8z M78.3,122c-1-1-2.2-2-3.7-2.7
		c-0.4-0.2-0.8-0.4-1.2-0.7c0.4,0.2,0.8,0.5,1.2,0.7C76.1,120,77.3,121,78.3,122c1.2,1.3,2,2.8,2.5,4.4
		C80.3,124.7,79.5,123.3,78.3,122z M80.4,137.9c-0.2,0.9-0.3,1.8-0.5,2.6c-0.1,0.7-0.2,1.5-0.3,2.2c-0.1,0.6-0.1,1.2-0.1,1.8
		c0-0.6,0-1.1,0.1-1.8c0.1-0.7,0.2-1.5,0.3-2.2C80.1,139.6,80.2,138.8,80.4,137.9z M79.5,144.5c0,1.7,0.4,3.1,1.1,4.1
		c0.6,0.9,1.4,1.6,2.5,2.1c-1.1-0.5-1.9-1.2-2.5-2.1C79.8,147.6,79.5,146.2,79.5,144.5z M97,167.1c0.2-0.4,0.4-0.8,0.5-1.2
		c0.3-1,0.4-2.1,0.3-3.3c-0.3-4.1-0.3-8,0.1-11.9c-0.4,3.8-0.4,7.8-0.1,11.9c0.1,1.3,0,2.3-0.3,3.3C97.4,166.3,97.3,166.7,97,167.1z
		 M98.8,145c0.4-1.9,0.9-3.7,1.4-5.5C99.7,141.3,99.2,143.1,98.8,145z M110.9,180.8c0.1,0.1,0.1,0.2,0.2,0.2l-0.2,0.8
		C110.8,181.4,110.8,181.1,110.9,180.8z M136.1,81.4c1.2-2.4,1.9-5,2.4-7.7c0,0,0,0,0,0C138,76.4,137.3,79,136.1,81.4z M159.7,77.1
		c-0.6,0.5-1.3,1.1-1.9,1.6C158.4,78.2,159,77.7,159.7,77.1z M169.9,118.8c0.1,0.7,0.2,1.4,0.4,2.3
		C169.3,120.3,169.6,119.5,169.9,118.8z M169.7,145.4c-1.7,0.7-3.3,1.3-5,2c-0.3,0.1-0.8,0.3-1.1,0.5c0.3-0.2,0.7-0.4,1.1-0.5
		C166.3,146.7,168,146.1,169.7,145.4z M165.4,149.2c0.1,0,0.2-0.1,0.3-0.1C165.6,149.1,165.5,149.1,165.4,149.2
		c-0.4,0.2-0.9,0.5-1.4,0.4C164.4,149.6,164.9,149.3,165.4,149.2z M174.9,145.5L174.9,145.5c0.7,3.9,1.4,7.9,2.2,11.8
		C176.3,153.4,175.6,149.5,174.9,145.5C174.9,145.5,174.9,145.5,174.9,145.5z M174.7,144.1c0-0.2-0.1-0.5-0.1-0.7l0,0
		c-0.3-1.3-0.5-2.7-0.8-4c0.3,1.3,0.5,2.7,0.8,4C174.7,143.7,174.7,143.9,174.7,144.1z M138.8,35.4c-0.3,0.2-0.7,0.5-1,0.7
		C138.2,35.9,138.5,35.7,138.8,35.4z M136.4,37.3c-0.3,0.3-0.6,0.5-0.9,0.8C135.8,37.8,136.1,37.6,136.4,37.3z M134.3,42.5
		C134.3,42.5,134.3,42.5,134.3,42.5C134.3,42.5,134.3,42.5,134.3,42.5C134.3,42.5,134.3,42.5,134.3,42.5c-0.1-1.1-0.2-2.3-0.3-3.5
		C134.1,40.2,134.2,41.4,134.3,42.5z M119.7,26.6c-0.8,0.6-1.6,1.1-2.3,1.7C118.5,27.5,118.6,27.2,119.7,26.6z M38.1,175.1
		c0,0.8-0.1,1.7-0.1,2.5C38,176.8,38,176,38.1,175.1z M47.3,185.8c0.1-0.4,0.1-0.8,0.1-1.2C47.4,185,47.4,185.4,47.3,185.8z
		 M47.3,181.6L47.3,181.6c8.9-0.8,17.8-1.7,26.7-2.5c0.1,0,0.2,0,0.2,0c-0.1,0-0.2,0-0.2,0C65,179.9,56.2,180.7,47.3,181.6z
		 M78.3,185c-0.1,0.8-0.6,1.9,1,2h0C77.8,186.9,78.2,185.9,78.3,185z M81.1,232.8c0.1-0.2,0.3-0.5,0.5-0.7
		C81.4,232.3,81.3,232.5,81.1,232.8z M102.1,200.8c1.5-3.1,3-6.3,4.5-9.5C105.1,194.5,103.6,197.7,102.1,200.8z M148.4,100.9
		c-3.3-0.5-6.6-0.8-9.9-0.7c0,0-0.1,0-0.1,0c0,0,0.1,0,0.1,0c-0.1-0.9,0.5-1.5,0.9-2.1c3.2-5.4,5.1-11.1,5.5-17.4
		c3.1,3.1,6.4,3,9.9,0.9l0,0c0.9,4.4,3.8,7.6,7,10.4c2.4,2,4.1,4.1,4.3,7.4c0.3,3.5,1.3,7,2,10.5c0.1,0.3,0.2,0.6,0.3,0.9
		c-0.1-0.3-0.2-0.6-0.3-0.9C162.1,105.6,155.8,102,148.4,100.9z M169.3,115.7c0-0.1-0.1-0.3-0.1-0.4
		C169.3,115.4,169.3,115.6,169.3,115.7z M169.1,114.8c0-0.2-0.1-0.4-0.1-0.5C169.1,114.5,169.1,114.6,169.1,114.8z M169,113.9
		c0-0.3-0.1-0.6-0.1-1C168.9,113.3,168.9,113.6,169,113.9z M168.8,112.7c0-0.2-0.1-0.5-0.1-0.7C168.7,112.3,168.8,112.5,168.8,112.7
		z M168.6,111.7c0-0.2-0.1-0.4-0.2-0.6C168.5,111.3,168.6,111.5,168.6,111.7z M169.4,162.9c-2,1.1-4.5,1.7-5.6,3.5
		C164.9,164.6,167.4,163.9,169.4,162.9c2.2-1.9,4.8-3,7.3-4.3C174.2,159.9,171.6,161,169.4,162.9
		C169.4,162.9,169.4,162.9,169.4,162.9z M178.9,166.7c0.1,0.8,0.3,1.6,0.6,2.4C179.2,168.2,179,167.4,178.9,166.7z"/>
	<path fill="#009BAB" d="M63.2,75.6l-12.8,1.2c0,0-11.2,3.7-14.7,5.4c-3.5,1.7-3.6,3.5-8.3,5.8c-0.4,0.2-0.8,0.5-1.3,0.8
		c-0.1,0.1-0.3,0.2-0.4,0.2c-0.1,0.1-0.2,0.2-0.4,0.3c-1,0.8-1.9,1.8-2.9,2.9c-2.9,3.1-5.2,6.6-6.6,10.7c-1.9,4.2-0.5,6.2-0.2,10.9
		c0,0.6,0.1,1.1,0.2,1.6c0,0.5,0.1,1.1,0.1,1.6c0.6,3,2.5,5.6,2.4,8.7c-0.6,3.5-2.1,9.1-3.1,14.5c-0.1,0.6-0.2,1.1-0.3,1.5
		c-0.3,0.5-0.7,1-1,1.5c-2.3,3.6-3.8,7.6-4.8,11.8c-0.9,3.6-0.4,7.2,1.2,10.5c5.8,12.3,22.1,21.8,35.8,20.8c0.8-1.6,0-3.2,0.2-4.8
		c-0.3,0-0.6-0.1-0.9-0.1l19.4-71.4L63.2,75.6z M39,182c-1.6,0.1-2.2-0.2-2.1-2c0-1.6,0.1-3.2,0.2-4.9l5.8,6.5
		C41.6,181.7,40.3,181.9,39,182z"/>
	<path fill="#02666C" d="M117.5,149.2c0.5-0.8,0.9-1.7,1.4-2.5c1.9-2.8,3.8-5.6,4.8-8.8c0.3-0.9,0.4-2-0.4-2.7
		c-0.9-0.8-1.8-0.1-2.6,0.3c-0.7,0.3-1.2,1-2.1,0.9l-0.2-0.2c0.4-2,2.1-3.3,2.6-5.1c0.3-1.2,1.5-2.5,0.4-3.5c-1-1-2.4-0.3-3.6,0.2
		c-2.8,1.2-5.6,2.4-8.7,3.8c1.8-3.4,3.6-6.5,5.1-9.6c0.8-1.6,2.4-3.8,0.7-5c-1.8-1.2-3.2,1.1-4.3,2.5c-10.6,12.5-15.1,27-13.7,43.3
		c0.2,2.5-0.3,4.3-2.1,6.2c-5.6,5.9-11,12.1-16.4,18.2c-1.7-0.1-1.1-1.3-1-2.1c0.2-1.4,0.8-2.8,0.4-4.3c0.1-0.4,0.1-0.7,0.2-1.1
		c0.3-0.3,0.3-0.5-0.1-0.6c-1.6,0.1-3.3,0.1-4.9,0.2c-8.9,0.8-17.8,1.7-26.7,2.5c-2.4-0.3-4.8,0.2-7.2,0.4c-1.6,0.1-2.2-0.2-2.1-2
		c0-3.4,0.5-6.8,0-10.2c12.5-1.2,25-2.4,37.6-3.7c0.8-0.1,1.6-0.1,2.3-0.2c0.6-0.1,1.2-0.4,1-1.1c-0.1-0.6-0.6-0.7-1.1-0.6
		c-0.7,0-1.4,0.1-2,0.2c-12.2,1.1-24.5,2.3-36.7,3.4c-0.4-1.3-0.3-2.7-0.2-4c0.9-8.3,1.7-16.5,2.6-24.8c0.6-0.8,1.1-3.9,1.2-4.6
		c0.1-0.5,2.7-7.5,2.9-9.3c2.7-4.3,5.8-8.3,9.8-11.6c0.8-0.6,3.8-2.8,4.7-3c2.4-0.4,4.2,0.3,6,2.1c2.7,2.5,5.5,5,8.8,6.8
		c6,3.2,7.4,8.4,6.5,14.6c-0.4,3-1.1,5.9-1.5,8.9c-0.6,5,1.3,7.9,5.7,8.6c3.9,0.7,5.8-2,7.3-4.8c3.8-7,4.7-14.8,4.6-22.6
		c0-5.4-0.3-10.7-4.2-15.1c4.9,1.7,9.5,3.9,14.6,5c8.1,1.7,20.3-3.1,23.5-10c0.7-2.9,2.7-3.7,5.4-3.6c0.7,0,1.3-0.2,2-0.2
		c3.3-0.1,6.6,0.2,9.9,0.7c7.4,1.1,13.7,4.7,19.7,9c1.1,2.4,0.6,5.3,2.1,7.6c0.2,1.2-1.4,2.4,0.1,3.6c1.5,7.5,2.9,14.9,4.4,22.4
		c-3.3,1.3-6.7,2.7-10,4c-0.7,0.3-1.7,0.5-1.3,1.6c0.4,1.1,1.3,0.4,2,0.2c3.2-1.2,6.4-2.4,9.5-3.6c0.8,4.2,1.5,8.5,2.3,12.7
		c-2.7,1.4-5.5,2.6-7.8,4.6c-3.1,1.6-7.3,2.3-6,7.5c0.2,6.4-0.3,12.9,1,19.3c1.5,9.4,3.1,18.9,4.6,28.3c0.4,2.6,0.9,5.2,1.3,7.8
		c0.4,3.4-1,5.8-4.1,6.9c-2.7,1-5.3,2.3-7.2,4.3c-8.1,8.5-18.4,10.3-29.5,9.9c-12.3-0.4-24.5-2.3-36.6-4.4c-1.6-0.3-3.2-0.7-4.9-0.6
		c-4.8,0.2-6.3-1.1-7-5.8c-0.1-0.7-0.2-1.4-0.3-2c0.2-1.2,1-2,1.8-3c7.6-9.4,14.3-19.4,19.7-30.2c3.1-6.3,5.9-12.7,8.8-19"/>
	<path fill="#009BAB" d="M143.8,80.7c-0.3,6.3-2.3,12-5.5,17.4c-0.4,0.7-1,1.3-0.9,2.1c-0.7,0.1-1.3,0.3-2,0.2
		c-2.7-0.2-4.7,0.7-5.4,3.6c-2.4,0.5-4.5-0.8-6.7-1.1c0.1-0.9-0.5-1.1-1.3-1.1c-0.9-2.7-2.2-5.3-2.4-8.3c-0.2-3.6-0.1-3.9,3.4-4.1
		c3.3-0.2,6.4-0.7,8.8-3.2c3.3-3.5,4.8-7.8,5.6-12.5C140.5,75.1,142,78.1,143.8,80.7z"/>
	<path fill="#A7B2A7" d="M123.3,102.9c2.2,0.3,4.4,1.6,6.7,1.1c-3.3,6.9-15.4,11.7-23.5,10c-5.1-1.1-9.8-3.3-14.6-5
		c-0.5-1-1.1-2.1-1.6-3.1c-1.4-3.3-1-4,2.4-5.4c0.4,0.4,0.8,0.8,1.2,1.2c5.9,5.8,12.6,8.9,21.1,6.1
		C118.3,106.7,120.7,104.6,123.3,102.9z"/>
	<path fill="#FFFFFF" d="M36.9,169.8c-0.7-1.2-0.3-1.9,1-2.1c12.2-1.1,24.5-2.3,36.7-3.4c0.7-0.1,1.4-0.1,2-0.2c0.5,0,1,0,1.1,0.6
		c0.1,0.7-0.4,1-1,1.1c-0.8,0.1-1.6,0.2-2.3,0.2C61.9,167.4,49.4,168.6,36.9,169.8z"/>
	<path fill="#A7B2A7" d="M211.1,167c-1.7-7.8-4.4-15.3-7.2-22.8c-3.6-9.5-7.6-18.8-11.8-28c-0.4-0.8-1.6-4.6-2.7-6c0,0,0-0.1,0-0.1
		c-0.4-1-0.9-2-1.4-2.9c-2.7-5.3-5-10.8-5.7-16.9c-1.5-13.5-6.9-25.7-13.9-37.2c-3.6-5.9-5.7-6.8-12.6-5.6c3.3,5,7.3,9.3,10.9,13.9
		c3,3.9,2.6,7.2-1.2,10.3c-4,3.2-8.2,6.2-11.8,9.9c0.9,4.4,3.8,7.6,7,10.4c2.4,2,4.1,4.1,4.3,7.4c0.3,3.5,1.3,7,2,10.5
		c0.9,2.1,0.7,4.5,1.6,6.6c0.1,1.1,0.3,2.5,0.6,4.5c1.5,7.5,2.9,14.9,4.4,22.4c0.1,0.7,0.2,1.4,0.2,2.1c0.8,4.2,1.5,8.5,2.3,12.7
		c-2.7,1.4-5.5,2.6-7.8,4.6c0,0,0,0,0,0c-3.1,1.6-7.3,2.3-6,7.5c2.6,1.8,4.1,4.6,5.9,7.1c3.4,4.7,7.6,8.7,10.5,13.8
		c0.1,0.1,3.2,6.2,16,5.7c3.2-0.3,8.6-5.9,9.8-7C211.5,183.6,213.1,175.8,211.1,167z M179,170.2c-0.7-1.6-1-3.2-1.3-4.7
		c-0.1-0.5-0.1-1-0.2-1.5c0.1,0.5,0.1,1,0.2,1.5C177.9,167,178.3,168.6,179,170.2L179,170.2z"/>
	<path fill="#FFFFFF" d="M173.7,143.4c0.1,0.7,0.2,1.4,0.2,2.1c-3.2,1.2-6.3,2.4-9.5,3.6c-0.7,0.3-1.6,0.9-2-0.2
		c-0.4-1,0.6-1.3,1.3-1.6C167,146.1,170.3,144.8,173.7,143.4z"/>
	<path fill="#B55844" d="M77.9,179.5c0-0.2-0.1-0.4-0.1-0.6C78.3,179,78.2,179.2,77.9,179.5z"/>
	<path fill="#02666C" d="M143.8,80.7c-1.9-2.6-3.3-5.5-6.3-7c0.2-1,0.5-1.9,0.7-2.9c1.3,1.7,2.7,3.3,4,5c2.3,2.7,4.5,3,7.3,0.9
		c3.5-2.5,6.9-5.1,10.3-7.7c2.8-2.2,3.2-4.7,1.1-7.6c-5.2-7-10.4-13.9-15.7-20.7c-2.1-2.7-4.2-2.9-7.1-1.1c-1.6,1-2.8,2.8-4.9,3
		c-0.1-1.2-0.2-2.3-0.3-3.5c2.8-1.5,4.7-4.6,8.2-5.1c2.6-0.1,4.4,1.1,5.9,3c2.9,3.5,5.5,7.3,8.7,10.5c3.3,5,7.3,9.3,10.9,13.9
		c3,3.9,2.6,7.2-1.2,10.3c-4,3.2-8.2,6.2-11.8,9.9C150.2,83.7,146.9,83.8,143.8,80.7z"/>
	<path fill="#A7B2A7" d="M133,39.1c0.1,1.2,0.2,2.3,0.3,3.5c0,0.7,0.9,4.4,0.9,4.9c0.1,8,4.2,15.3,4.1,23.4c-0.2,1-0.5,1.9-0.7,2.9
		c-0.8,4.6-2.3,9-5.6,12.5c-2.4,2.5-5.5,3-8.8,3.2c-3.5,0.2-3.6,0.5-3.4,4.1c0.2,3,1.5,5.6,2.4,8.3c-6.8,6.1-14,7.2-21.3,3.4
		c-2.8-1.5-4.8-3.8-7-6c0-3.1,1.9-5.8,1.8-9c0-1-6-14-7-17.1c-5.1-2.8-8.6-9.8-7.3-14.3c0.7-2.3,2.2-4.2,4.7-4.2
		c3.4,0,5.3-1.6,7.2-4.3c6.1-8.9,14.3-15.8,23.1-22c2.1-1.4,4-3.1,6.4-3.9c0.3,0,0.6,0.1,1,0.1c0.6,2.1,2.8,2.8,3.9,4.6
		C129.7,32.3,131.4,35.6,133,39.1z M125.3,81.5c2.5-0.3,5.5-6.4,4.1-8.4c-0.3-0.5-0.8-0.5-1.3-0.4c-3.1,0.4-6.2,0.8-9.2,1.2
		c-0.9,0.1-1.5,0.3-1.4,1.4C117.8,78.1,122.2,81.8,125.3,81.5z"/>
	<path fill="#02666C" d="M93.8,99.2c2.2,2.2,4.2,4.5,7,6c7.3,3.7,14.5,2.6,21.3-3.4c0.8,0,1.3,0.2,1.3,1.1c-2.7,1.7-5.1,3.9-8.2,4.9
		c-8.5,2.8-15.1-0.4-21.1-6.1c-0.4-0.4-0.8-0.8-1.2-1.2C92.6,99.6,92.9,99.2,93.8,99.2z"/>
	<path fill="#02666C" d="M58.6,105.2c-0.4-0.9-0.9-1.7-1.3-2.6c-0.6-6.4,1.2-12.3,4.7-17.7c0.4-0.7,0.8-2,1.8-1.3
		c0.8,0.5-0.2,1.4-0.6,2c-3,4.7-5.1,9.6-4.5,15.3c0.1,1.2,0.3,2.2,1,3.3C60.4,105.3,59.2,105.1,58.6,105.2z"/>
	<path fill="#332655" d="M118.6,136.3c-0.1,0.1-0.3,0.4-0.3,0.4c-0.5-0.3-0.1-0.4,0.1-0.6C118.4,136.2,118.6,136.3,118.6,136.3z"/>
	<path fill="#B55844" d="M67.8,198.6c0,0.1-0.1,0.2-0.1,0.2C67.7,198.8,67.8,198.7,67.8,198.6L67.8,198.6z"/>
	<path fill="#EDC01B" d="M133.2,44.6c0-0.7,0-1.4,0.1-2.1c2.1-0.3,3.3-2,4.9-3c2.9-1.8,5.1-1.6,7.1,1.1c5.3,6.9,10.5,13.8,15.7,20.7
		c2.1,2.9,1.7,5.4-1.1,7.6c-3.4,2.6-6.8,5.2-10.3,7.7c-2.9,2.1-5.1,1.8-7.3-0.9c-1.4-1.6-2.7-3.3-4-5c0.2-8-4-15.3-4.1-23.4
		c0-0.5-0.4-1.1-0.7-1.6C133.4,45.4,133.3,45,133.2,44.6z"/>
	<path fill="#FBFBFB" d="M125.3,81.5c-3,0.3-7.5-3.4-7.7-6.3c-0.1-1.1,0.5-1.3,1.4-1.4c3.1-0.4,6.2-0.8,9.2-1.2
		c0.5-0.1,0.9-0.1,1.3,0.4C130.8,75.2,127.8,81.3,125.3,81.5z"/>
	<path fill="#02666C" d="M92.9,65.8c0.1,1.7-0.8,1.9-1.9,1.6c-1.6-0.4-2.8-1.5-3.8-2.6c-0.5-0.5-1.2-1.2-0.5-2.1
		c0.6-0.8,1.4-1.3,2.5-0.9C91.3,62.4,92,64.3,92.9,65.8z"/>
	<path fill="#009BAB" d="M121.4,5.6c10,4,14.4,12.6,17.8,22c0.8,2.1,1.3,4.3,1.9,6.4c-3.5,0.5-5.4,3.6-8.2,5.1
		c-1.5-3.5-3.3-6.8-5.3-10c-1.1-1.8-3.3-2.5-3.9-4.6c-6.8,2.6-5.4,2.3-7.4,3.8c-8.8,6.2-17,13.1-23.1,22c-1.9,2.8-3.8,4.3-7.2,4.3
		c-2.5,0-4,1.8-4.7,4.2c-1.3,4.5,2.2,11.5,7.3,14.3c2.7,1.6,7,7.4,6.9,14c0.3,1,0.1,2.1,0.1,3.1c0.1,3.2-1.8,5.9-1.8,9
		c-0.8,0-1.1,0.4-1,1.2c-3.5,1.4-3.8,2.1-2.4,5.4c0.5,1.1,1,2.1,1.6,3.1c3.9,4.3,4.1,9.7,4.2,15.1c0.1,7.9-0.9,15.6-4.6,22.6
		c-1.5,2.7-3.4,5.4-7.3,4.8c-4.4-0.7-6.3-3.6-5.7-8.6c0.4-3,1-5.9,1.5-8.9c0.9-6.2-0.4-11.4-6.5-14.6c-3.3-1.7-6.1-4.2-8.8-6.8
		c-1.8-1.7-3.6-2.5-6-2.1c1.8-1.8-0.4-3.5-0.2-5.3c0.6-0.1,1.8,0.1,1-1c-0.7-1-0.9-2.1-1-3.3c-0.6-5.7,1.5-10.6,4.5-15.3
		c0.4-0.6,1.4-1.4,0.6-2c-1-0.7-1.4,0.6-1.8,1.3c-3.4,5.4-5.2,11.2-4.7,17.7c-1.1,0.3-1.8-0.5-2.6-1.1c-2.6-2.1-5-4.3-7.7-6.3
		c-1.8-1.4-1.7-2.5-0.2-4c3.2-3.3,6.3-6.7,9.3-10.1c1-1.2,2.4-2.2,2.9-4c-3.3,0.3-6.3,0.7-9.3,0.8c-1.7,0.1-2.8,0.8-3.9,2.1
		c-2.4,2.9-5,5.7-7.6,8.5c-0.4,0.4-0.7,1.1-1.4,0.9c-0.7-0.2-0.5-1-0.6-1.5c-0.2-1.7-0.4-3.5-0.6-5.2c0-0.1,0.1-0.3,0.1-0.4
		c0.7-0.4,1.5-0.8,2.2-1.3c11.4-3.8,16.6-12.8,20.1-23.3c1.7-5.1,2-10.3,2.7-15.5c1-6.8,2.7-13.3,6.2-19.3
		C73,12.2,82.9,8.5,94.4,8.2c2.4-0.1,4.4-0.2,6.7-1.4c5.6-2.8,11.7-2.4,17.8-1.6C119.7,5.4,120.6,5.5,121.4,5.6z"/>
	<path fill="#02666C" d="M129.6,24c-0.3,0-0.6-0.1-1-0.1c-1.9-10.1-11.3-13.8-19.5-14.4c-1.4-0.1-2.8-0.2-4.9-0.4
		c2.4-1.7,4.3-1,6-0.8c6.2,0.8,12,2.4,16.2,7.5C128.4,18.1,129.6,20.8,129.6,24z"/>
	<path fill="#02666C" d="M64.1,68.6c-0.8-0.5-0.6-1.1-0.3-1.6c4-7.6,7.6-15.6,14.2-21.5c2.7-2.5,5.7-4.4,9.7-4.1
		c0.6,0,1.2,0.1,1.4,1c-10,0.1-13.8,8-18.4,14.7c-2.2,3.2-3.9,6.7-5.5,10.3C65,68,64.7,68.5,64.1,68.6z"/>
	<g>
		<path fill="#FFFFFF" d="M124.8,145.9c-12.6,1.2-20.5,12.4-19.5,23.5c0.5,5,2.6,8.4,2.6,8.4s3-7.7,12.4-11.6l5.1-14.1L133,165
			c10,2,14.3,9.1,14.3,9.1s1.4-3.7,1-8.7C147.3,154.3,137.4,144.8,124.8,145.9 M117.4,160.2c-1.3,3.6-3.3,7-5.9,9.8
			c-1.4,1.5-2.1,2.6-2.1,2.6c-2.8-8.8,1.9-19.2,11.6-22.5L117.4,160.2z M144.9,169.3c0,0-0.9-1-2.5-2.2c-3.1-2.3-5.7-5.2-7.6-8.5
			l-5.4-9.2C139.4,150.8,146,160.1,144.9,169.3"/>
		<path fill="#FFFFFF" d="M126.1,160.4l12.4,20.9c0.6-0.3,2.3-2,2.6-2.6l-6.2-10.5c7.7,2.7,11.3,8.6,11.3,8.6
			c-2.3,4.6-5.6,7.8-10,10l-9-15.3l-6,16.7c-4.7-1.3-8.5-3.8-11.7-7.9c0,0,2.5-6.6,9.5-10.6l-4.1,11.5c0.4,0.6,2.4,1.9,3,2.1
			L126.1,160.4z"/>
	</g>
	<path fill="#A7B2A7" d="M123.3,135.1c-0.9-0.8-1.8-0.1-2.6,0.3c-0.7,0.3-1.2,1-2.1,0.9c-0.1,0.1-0.3,0.4-0.3,0.4
		c-0.5-0.3-0.1-0.4,0.1-0.6c0.4-2,2.1-3.3,2.6-5.1c0.3-1.2,1.5-2.5,0.4-3.5c-1-1-2.4-0.3-3.6,0.2c-2.8,1.2-5.6,2.4-8.7,3.8
		c1.8-3.4,3.6-6.5,5.1-9.6c0.8-1.6,2.4-3.8,0.7-5c-1.8-1.2-3.2,1.1-4.3,2.5c-10.6,12.5-15.1,27-13.7,43.3c0.2,2.5-0.3,4.3-2.1,6.2
		c-5.6,5.9-11,12.1-16.4,18.2c-1.7-0.1-1.1-1.3-1-2.1c0.2-1.4,0.8-2.8,0.4-4.3c0.1-0.4,0.1-0.7,0.2-1.1c0-0.2-0.1-0.4-0.1-0.6
		c-1.6,0.1-3.3,0.1-4.9,0.2c-8.9,0.8-17.8,1.7-26.7,2.5c-0.2,1.6,0.6,3.2-0.2,4.8c0.2,2.6,0.5,5.2,0.6,7.9
		c0.3,8.6,1.5,17.1,4.3,25.2c3.1,9.1,8.5,16.1,18.4,18.6c3.1,0.8,5.7,0.6,7.8-2.1c0.6-0.8,1.2-1.9,2.4-2c0.2-1.2,1-2,1.8-3
		c7.6-9.4,14.3-19.4,19.7-30.2c3.1-6.3,5.9-12.7,8.8-19c-0.3-0.8,0-1.4,0.7-1.9c1-4.1,1.6-8.4,4.7-11.7c1.6-1.7,1.7-4.1,1.9-6.3
		c0.4-3.6,0.4-7.2,0.3-10.8c0-0.6-0.1-1.3-0.1-1.9c0.5-0.8,0.9-1.7,1.4-2.5c1.9-2.8,3.8-5.6,4.8-8.8
		C124,136.9,124.1,135.8,123.3,135.1z"/>
</g>
</svg>
