<?xml version="1.0" encoding="utf-8"?>
<!-- Generator: Adobe Illustrator 25.0.0, SVG Export Plug-In . SVG Version: 6.00 Build 0)  -->
<svg version="1.1" id="Layer_1" xmlns="http://www.w3.org/2000/svg" xmlns:xlink="http://www.w3.org/1999/xlink" x="0px" y="0px"
	 viewBox="0 0 444.5 244" enable-background="new 0 0 444.5 244" xml:space="preserve">
<g>
	<path d="M410.7,143.9c0.2,3.9,2.9,8.4,2.8,10c-0.2,1.6-3.4,3.3-3,9.4c0.4,6.4,2.2,8.9,2.4,10c0.2,1.1-3.7,3.4-4,8.7
		c-0.2,4.9,0.4,8.7,11.2,8.7c0,0,0,0,0,0c0.6,0,1.1,0,1.8,0c0,0,0,0,0,0c0.2,0,0.4,0,0.6,0c0,0,0,0,0,0c11.3,0,10.8-3.8,11.1-8.7
		c0.3-5.6-1-6.9-1.2-8.7c-0.2-1.2,3.2-3.8,3.2-10.2c0-4.4-3-7.4-3.2-9.1c-0.2-1.2,2.6-6.7,2.6-10c0-5.8-8.9-14.5-10.9-14.5
		c-0.2,0-0.5,0.1-0.9,0.3c-0.4-0.2-0.7-0.3-0.9-0.3C419.9,129.4,410.4,139,410.7,143.9z"/>
	<path d="M422.4,191.9c0-0.4,0-0.8,0-1.1l-0.6,0c0,0-0.1,0.5-0.2,1.1c-0.3,0-0.5,0-0.8,0c-0.1,0-0.2,0-0.3,0c0-0.7,0-1.1,0-1.1H420
		c0,0-0.1,0.5-0.2,1.1c-7.7,0-13.9,0.9-13.9,2c0,0.1,0,0.1,0.1,0.2h-0.1v33.7c0,0,1.4,6.4,14.5,6.4c0.2,0,0.4,0,0.7,0
		c0.4,0,0.8,0,1.2,0c11.2,0,14-4.8,14-4.8V194C436.3,192.8,430.1,191.9,422.4,191.9z"/>
	<path d="M418.1,76l-2,0.1l0.2-0.8l-128.9,6.5L273,175.7l-2.1-0.4l-13-54.6c0,0-3.1-6.6-7.6-7.7c-0.1-0.1-0.2-0.1-0.3-0.2
		c-4.9-2.9-14.6-7.1-23.5-10.8c-7-2.9-13.8-5.6-17.8-7.1c0.2,0,0.5,0,0.7,0c5.2,0,9.3-2.8,12.4-7.2c2.4-0.6,4.1-1.9,4.1-3.2
		c0-0.2,0-0.4-0.1-0.5c0,0,0,0,0,0c-0.7-1.8-1.4-3.7-2.1-5.5c1.7-5.7,3.4-11.4,5.1-17.1l1.9-2c-0.5-0.5-1-1-1.4-1.4
		c0-0.2,0-0.5,0-0.7c0-8.6-0.9-14.8-2.5-19.3c0,0,8.9-5.3,11.8-11.7c4.8-10.6,1.9-20.9,1.9-20.9s-0.5,0.3-1.5,0.9
		c-0.2-1-0.3-1.6-0.3-1.6s-11.2,7.1-25.4,8.9c-0.7-1.5-2.6-4.3-6.7-5.7c-0.9-0.5-2-0.9-3.3-1.2c-5-1-15.2-1.2-22.9,2.7
		c-4.7,0.1-8.8,1.4-11.5,5c-3.4,4.5-0.8,12.1-0.8,12.1c-10.7,8.4-9.6,21.6-5.2,31.3c0.4,1.9,1.4,3.6,2.7,5c1.2,1.9,2.5,3.5,4.1,5
		c6.1,5.5,8.7,16.7,8.7,16.7V89c-9.5,1-60.9,6.3-67,6.4c-9.8,0.3-11.1,9.1-11.1,14.7c0,6.3-1.9,84.5-2.2,94.5l-4.2,0.6l5.7-69.4
		c0,0-0.8,1-2.1,2.7l0.3-3.5c0,0-8,10.4-16.6,20.8c-0.3-16-2.5-59.2-17.6-86.6c-6.1-11-17.6-17.8-28.1-21.9
		C23.2,42.2,12,40.7,12,40.7s11.7,7.7,16.6,34c5.5,29.7-10.3,63.8-14.6,83.6c-0.6,2.6-1,5.2-1.4,7.6c-0.4-0.2-0.9-0.3-1.3-0.5
		c-1.7-0.7-3.5-1.4-5.3-1.9c2.3,4.2,4.1,8.6,5.3,13.2c-0.3,4.6-0.2,9.3,0.5,13.9c-0.1,0.2-0.1,0.3-0.1,0.5c-2.7,8.9-0.1,20,1.3,24.9
		l-12.8,1.7L0,222l1.9-0.3l0,1l100.1-13.6c0,5.1,0.5,8.6,1.8,9.9c1,1,2.9,2,5.5,3c21.7,9.6,114.4,14.3,114.4,14.3l1.6-3.6l33.9,9
		l85.3-26.4l0.6,15.7c1.8,1.6,3.9,2.8,6.1,3.5c3.7,1.8,7.9,2.3,11.9,1.5c13.4-2.7,12.9-12.2,12.9-12.2l-1.4-18l3.9-1.2l-0.5-6.5
		l-1.8-0.1l-0.1-0.6l-2.2-0.2l-1.4-18.2l26.5-4.8L418.1,76z M51.3,151.4c-0.3,18.7-5.6,41-9.2,54.1c-0.2-0.9-0.5-1.8-0.8-2.8
		c3.6-13.2,8.3-34.7,9.7-61c0.2-3.3,0.3-6.4,0.4-9.4C51.4,138,51.4,144.3,51.3,151.4z M71.9,191.6L71.9,191.6
		c-2,5.6-3.4,11.3-4.3,17.2l-0.8,0.1c0.7-3.9,2.3-11,6.4-20.8c0.3-0.7,0.6-1.5,0.9-2.2C73.3,187.8,72.6,189.7,71.9,191.6z
		 M204.1,11.7c0.4,0.1,0.8,0.2,1.2,0.3c1.1,0.6,1.5,1.3,1.6,1.6c-3.5-0.4-7.6-1.4-11.8-2.3C198.6,11,201.8,11.2,204.1,11.7z
		 M253.9,214.3c-4.2-1.3-7.8-2.2-7.8-2.2l-16.3,7l-0.3-0.1l0.1-0.3l-64.2-13.8l29.3-1.8l0.7,0l0,0l48.6-3l10.6,0.4l15.1-0.4
		l37.7,2.8L253.9,214.3z M342.8,195.3h-0.1h-0.1l-23.2,5l1.5-2l16.5-4.5l6.1-0.9l0.1,2.4L342.8,195.3z"/>
</g>
<g id="Business">
	<path fill="#FFFFFF" d="M423.3,78.2l-128.9,6.5L280,178.7l-3.8-0.6l-13.1-55.1c0,0-3.1-6.6-7.6-7.7c-8.8-5.4-34.9-15.4-41.8-18.1
		h0.9c5.2,0,9.3-2.8,12.4-7.2c2.4-0.6,4.1-1.9,4.1-3.3c0-0.2,0-0.4-0.1-0.5c8.4-0.6,12.4-4.1,12.4-11.7c0-5.2-5.9-11.4-8.9-14.2
		c0-0.2,0-0.5,0-0.7c0-8.6-0.9-14.8-2.5-19.3c0.3-0.2,8.9-5.4,11.8-11.7c4.8-10.6,1.9-20.9,1.9-20.9s-11.9,7.6-26.8,9
		c-0.2-0.6-2-5.6-8.6-7c-5-1-15.2-1.2-22.9,2.7c-4.7,0.1-8.8,1.4-11.5,5c-3.4,4.5-0.8,12.1-0.8,12.1c-10.7,8.4-9.6,21.6-5.2,31.3
		c0.4,1.9,1.4,3.6,2.7,5c1.2,1.9,2.5,3.5,4.1,5c6.1,5.5,8.7,16.7,8.7,16.7V92c-9.5,1-60.9,6.3-67,6.4c-9.8,0.3-11.1,9.1-11.1,14.7
		c0,6.3-1.9,84.5-2.2,94.5l-6.1,0.8l5.8-70.4c0,0-9.2,11.9-18.4,23c-0.1-12.8-1.4-60.3-17.6-89.5C55.9,48.5,19,43.7,19,43.7
		s11.7,7.7,16.6,34c5.5,29.7-10.3,63.8-14.6,83.6c-0.6,2.6-1,5.2-1.4,7.6c-2.1-1-4.3-1.8-6.5-2.4c2.3,4.2,4.1,8.6,5.3,13.2
		c-0.3,4.6-0.2,9.3,0.5,13.9c-0.1,0.2-0.1,0.3-0.1,0.5c-2.7,8.9-0.1,20,1.3,24.9l-12.8,1.7L7,225l101.9-13.8
		c-0.1,5.6,0.4,9.5,1.8,10.9c10.8,11.1,118,16.5,118,16.5l1.6-3.6l33.9,8.9l87.1-27l0.7,17.1c4.4,3.9,10.4,5.4,16.2,4.2
		c13.4-2.7,12.9-12.2,12.9-12.2l-1.3-17.9l3.9-1.2l-0.6-6.5l-4-0.3l-1.4-18.9l26.5-4.8L423.3,78.2z M231.6,77.6
		c1.5-5.6,2.2-16.5,2.2-16.5s5.2,5.2,7,9c1.6,3.4,1.4,7.4-0.5,10.6c-2.8,4.4-10.4,4.4-10.4,4.4l-0.7-0.6
		C230.2,82.2,230.9,79.9,231.6,77.6L231.6,77.6z M217.7,16.6c-0.5,0-1,0.1-1.6,0L217.7,16.6z M58.3,154.4
		c-0.3,20.3-6.5,44.7-10.1,57.1c-0.4-1.9-1-4.2-1.8-6.6c5.3-19.9,8.6-40.4,9.7-61C58.6,99,53,86.5,53,86.5S59.3,92.1,58.3,154.4z
		 M62.2,192.3c1.2-2.6,2.7-5,4.5-7.2C65,187.6,63.5,190,62.2,192.3L62.2,192.3z M78.9,194.6c-1.9,5.6-3.4,11.3-4.3,17.2l-2.8,0.4
		c0.6-3.6,2.1-11,6.6-21.8c6.4-15.6,13.9-21.5,13.9-21.5C86.6,176.7,82.1,185.4,78.9,194.6L78.9,194.6z M209.3,13.9
		c3.4,0.7,4.4,2.1,4.6,2.6c-4.3-0.5-9.5-1.9-14.8-2.9C202.5,13.2,205.9,13.3,209.3,13.9L209.3,13.9z M260.9,217.3
		c-4.2-1.3-7.8-2.2-7.8-2.2l-16.8,7.2l0.3-0.6l-67.3-14.5l31.3-2l0,0l48.7-3l10.5,0.4l15.1-0.4l41.5,3.1L260.9,217.3z M349.8,198.3
		h-0.1h-0.1l-26.1,5.6l2.6-3.4l16.5-4.5l7.9-1.2l0.1,3.5L349.8,198.3z"/>
	<path fill="#FFFFFF" d="M425.6,193.9c0-0.7,0-1.1,0-1.1H425c0,0-0.1,0.5-0.2,1.1c-7.7,0-13.9,0.9-13.9,2c0,0.1,0,0.1,0.1,0.2h-0.1
		v33.7c0,0,1.4,6.4,14.5,6.4c11.2,0,14-4.8,14-4.8V196C439.5,194.8,433.3,193.9,425.6,193.9z"/>
	<path fill="#FFFFFF" d="M426,176.5c0-1.1-0.1-2.2-0.3-3.2c-0.3-2.2-0.5-4.3-0.7-6.5c-0.2-2.2-0.4-4.3-0.4-6.5c0-1.1,0-2.2,0.1-3.3
		c0-0.6,0.1-1.1,0.2-1.7c0.1-0.6,0.2-1.1,0.2-1.6c0.6-4.3,1.2-8.6,1.9-12.9h0.1c0,1.1-0.1,2.2-0.1,3.3l-0.2,3.3
		c-0.1,2.2-0.3,4.3-0.6,6.5c-0.1,0.6-0.1,1.1-0.2,1.6s-0.1,1-0.2,1.6c-0.1,1.1-0.1,2.1-0.1,3.2c0,2.2,0.1,4.3,0.2,6.5
		s0.3,4.3,0.6,6.5c0.1,1.1,0.2,2.2,0.2,3.3c0,1.1,0,2.2-0.1,3.3c-0.3,4.4-0.4,8.7-1,13c11.3,0,10.8-3.8,11.1-8.7
		c0.3-5.6-1-6.9-1.2-8.7c-0.2-1.2,3.2-3.8,3.2-10.3c0-4.4-3-7.4-3.2-9.1c-0.2-1.2,2.6-6.7,2.6-10c-0.1-5.8-8.9-14.5-10.9-14.5
		c-2.2,0-11.7,9.6-11.5,14.5c0.2,3.9,2.9,8.4,2.8,10c-0.2,1.6-3.4,3.3-3,9.4c0.4,6.4,2.2,8.9,2.4,10c0.2,1.1-3.7,3.4-4,8.7
		c-0.2,4.9,0.4,8.7,11.2,8.7c0,0,0.8-8.7,1-13C426,178.7,426.1,177.6,426,176.5z"/>
	<polygon fill="#5E4F49" points="382.6,206.8 263.1,243.8 227.2,234.3 226.4,224.3 348.6,198 382,200.3 	"/>
	<polygon fill="#84736A" points="226.1,224.3 348.4,198 381.8,200.3 262.8,237.6 	"/>
	<path fill="#49494A" d="M103.9,208.5c0,0,2.2-88.8,2.2-95.6c0-5.6,1.3-14.4,11.1-14.7c6.7-0.2,68.5-6.6,68.5-6.6l13.7,113.4
		L103.9,208.5z"/>
	<path fill="#183142" d="M187.1,96.2c0,0-42,8.8-54.2,19.5c-12.7,11.1-31,98.2-23.3,106.1c10.8,11,118,16.5,118,16.5l7.8-16.9
		L168.1,207l83.1-5.2c0,0,12.7-80.2,4.2-86.1c-8.5-5.9-44.7-19.5-44.7-19.5H187.1z"/>
	<path fill="#A7B2A7" d="M184.2,71.6h23.3v39.7c0,0-0.6,3.7-12.3,2.5s-11-5-11-5V71.6z"/>
	<path fill="none" stroke="#02666C" stroke-width="3" stroke-miterlimit="10" d="M231.5,58.4c0,0,10.6,8.9,10.6,15.7
		c0,8.6-5,11.9-15.5,11.9"/>
	<path fill="#A7B2A7" d="M233.2,59.2c0,17.1-5.6,37.7-19.9,37.7s-29.2,0-31.6-37.7c-1.1-17.1,11.5-31,25.8-31S233.2,28.2,233.2,59.2
		z"/>
	<path fill="#009EAE" d="M184.2,87.1c0,0-2.5-11.2-8.7-16.7c-7.8-6.9-17.1-29.1-1.6-41.4c0,0-2.6-7.5,0.8-12.1
		c8.4-11.5,31.1,0.2,41.9-0.7c15.4-1.2,27.9-9.1,27.9-9.1s2.9,10.3-1.9,20.9c-2.9,6.4-11.8,11.7-11.8,11.7s-10.6,0.7-14.9,0.7
		c-4.3,0-14.7-1.5-20,0.6C184.2,45.9,189,62,189,62l-6.4-8.4l1.5,18L184.2,87.1z"/>
	
		<ellipse transform="matrix(0.9798 -0.1999 0.1999 0.9798 -9.2833 37.6057)" fill="#C6BE97" cx="181.6" cy="64.8" rx="4.9" ry="9.4"/>
	<polygon fill="#A7B2A7" points="331.3,188.1 348.8,180.8 375.3,190.7 341.4,195.7 322.3,200.9 	"/>
	<ellipse fill="#02666C" cx="180.7" cy="58.3" rx="12.3" ry="10.9"/>
	<path fill="#02666C" d="M176.8,47.9c-0.2-2.3-1.9-22.6,1.9-29.2c6.1-10.5,23.3-10.9,30.3-9.4s8.5,6.8,8.6,7.1l-4.9,0.1
		c0-0.1-0.5-1.9-4.7-2.8c-6.4-1.3-21-0.6-25.5,7.3c-2.3,4-2,18.4-1.3,26.6L176.8,47.9z"/>
	<ellipse fill="#009EAE" cx="221.8" cy="86.4" rx="8" ry="3.7"/>
	<path fill="#1C2630" d="M156.5,150.4l-5.1,50.7l16.8,5.9c0,0-3.7-13.6-5.2-18.7C161.4,183.4,156.5,150.4,156.5,150.4z"/>
	<path fill="#A8A28A" d="M275.1,230.5l74.8-22.6l-0.3-8l-3.9-0.6l-86,19.7c0,0,6.9,2.6,8.4,3.3s2.4,1.7,3.7,3.5
		C273,227.5,275.1,230.5,275.1,230.5z"/>
	<line fill="none" stroke="#84736A" stroke-miterlimit="10" x1="265.8" y1="217.4" x2="291" y2="226.2"/>
	<line fill="none" stroke="#84736A" stroke-miterlimit="10" x1="261.7" y1="221.2" x2="349.5" y2="199.8"/>
	<line fill="none" stroke="#84736A" stroke-miterlimit="10" x1="265.7" y1="223.6" x2="353.6" y2="202.3"/>
	<line fill="none" stroke="#84736A" stroke-miterlimit="10" x1="270.7" y1="226.8" x2="361" y2="202.5"/>
	<line fill="none" stroke="#84736A" stroke-miterlimit="10" x1="276.4" y1="214.8" x2="301.3" y2="223.3"/>
	<line fill="none" stroke="#84736A" stroke-miterlimit="10" x1="285" y1="212.9" x2="310.4" y2="220.4"/>
	<line fill="none" stroke="#84736A" stroke-miterlimit="10" x1="293.6" y1="210" x2="318.2" y2="218"/>
	<line fill="none" stroke="#84736A" stroke-miterlimit="10" x1="302.3" y1="208.8" x2="326.9" y2="215.6"/>
	<line fill="none" stroke="#84736A" stroke-miterlimit="10" x1="309.7" y1="206.9" x2="334.2" y2="213.7"/>
	<line fill="none" stroke="#84736A" stroke-miterlimit="10" x1="318.8" y1="205.2" x2="340.5" y2="211.3"/>
	<line fill="none" stroke="#84736A" stroke-miterlimit="10" x1="325.5" y1="203.2" x2="348" y2="209"/>
	<line fill="none" stroke="#84736A" stroke-miterlimit="10" x1="333.6" y1="201.6" x2="350.4" y2="206"/>
	<line fill="none" stroke="#84736A" stroke-miterlimit="10" x1="340.3" y1="200" x2="351.3" y2="202.2"/>
	<path fill="#A7B2A7" d="M235,222.1l16.9-7.3c0,0,16.7,4.4,20,7.3c1.8,1.6,6.4,8.8,6.4,8.8s-0.8,3.1-3.9,3.1
		c-3.1,0-8.1-6.2-11.6-6.2c-3.5,0-7.9-2-12,0.9c-3.3,2.4-5.6,5-12.3,5.5c-2.9,0.3-5.8,0-8.6-0.7L235,222.1z"/>
	<path fill="#183142" d="M261.9,122.7l13.1,55.1l59.3,10l-13.5,17.8l-72.3-5.4c0,0-8.7-74-0.8-82.5
		C255.6,109.1,261.9,122.7,261.9,122.7z"/>
	<polygon fill="#84736A" points="275.6,199.5 293.1,84.5 422.1,78 403.1,176.3 	"/>
	<path fill="#5E4F49" d="M359.3,138.7c0,0-18.7,4.8-18.9,13.3c-0.1,7.9-1.1,10.6,0,35.7c0,0,26.1-4.8,32.9-6
		C377.3,181,376.6,138,359.3,138.7z"/>
	<path fill="#84736A" d="M347.4,148.1l3.6,85.8c4.4,3.9,10.4,5.4,16.2,4.2c13.4-2.7,12.9-12.2,12.9-12.2l-5.9-77.8
		c0,0-2.8-13.5-14.8-9.4C347.4,142.8,347.4,148.1,347.4,148.1z"/>
	<path fill="#1C2630" d="M245.5,158.1c0,0,10.2,35.4,13.1,39.3c2.1,2.8,15.1,4.7,15.1,4.7l-15.1,0.4l-14.8-0.6L245.5,158.1z"/>
	<path fill="#009EAE" d="M67.5,71.2c-12.7-23-49.7-27.7-49.7-27.7s11.7,7.7,16.6,34c5.5,29.7-10.3,63.7-14.6,83.6
		c-9.9,45.6,8.1,55.5,21.3,56.9c2.1-5.9,11.7-34.5,13.9-74.5c2.4-44.9-3.1-57.5-3.1-57.5s6.3,5.7,5.2,67.9
		c-0.5,25.7-10.3,58.2-12.2,64.2c2.8,0,5.6-0.3,8.4-0.9c0,0,3.9-23.4,13-33.4c6.7-7.3,18.8-20,18.8-20S86.4,105.3,67.5,71.2z"/>
	<path fill="#49494A" d="M77.2,170c-27.1,30.4-23.5,47.1-23.5,47.1l18.3-2.6l25.6-3.6l6-73.1C103.6,137.8,88.1,157.8,77.2,170z
		 M77.7,194.3c-4,12-4.5,18.9-4.7,19.8l-2.7,0.1c0,0,0.4-8.7,6.8-24.2c6.4-15.6,13.9-21.5,13.9-21.5
		C85.4,176.4,80.9,185.1,77.7,194.3L77.7,194.3z"/>
	<path fill="#EDC01B" d="M26.8,187.1c0,0,0.6,9.1,4.2,22.2c1.1,3.6,2.4,7.1,4,10.5l13.4-1.5c0,0-3-26.5-19.7-43
		c-6-5.9-16.8-8.9-16.8-8.9s9.2,15.9,5.6,27.7c-3.6,11.8,2.2,27.6,2.2,27.6l12.4-1.4H32c-1.5-4.5-2.8-9.2-3.9-13.8
		C26.4,197.8,26.8,187.1,26.8,187.1z"/>
	<path fill="#FFFFFF" d="M31,209.3c-3.6-13.1-4.2-22.2-4.2-22.2s-0.4,10.7,1.3,19.2c1.1,4.7,2.4,9.3,3.9,13.8c0,0.1,0,0.1,0.1,0.2
		l2.9-0.4c0,0,0,0-0.1-0.1C33.3,216.4,32,212.9,31,209.3z"/>
	<path fill="#938C70" d="M207.4,96.8c0,0-4.3-0.1-11.2-3c-4-1.7-9.7-7.7-9.7-7.7s1.5,6.2,8.8,11.5c3.6,2.6,7.8,4.4,12.1,5.3
		L207.4,96.8z"/>
	<polygon fill="#183142" points="5.9,220.6 108.9,206.7 108.8,210.8 5.9,224.8 	"/>
	<path fill="#183142" d="M411.8,196.1v33.7c0,0,1.4,6.4,14.5,6.4c11.2,0,14-4.8,14-4.8V196L411.8,196.1z"/>
	<ellipse fill="#1C2630" cx="426" cy="196" rx="14.3" ry="2.1"/>
	<path fill="#009EAE" d="M439.5,165.1c0-4.4-3-7.4-3.2-9.1c-0.2-1.2,2.6-6.7,2.6-10c0-5.8-8.9-14.5-10.9-14.5
		c-2.2,0-11.7,9.6-11.5,14.5c0.2,3.9,2.9,8.4,2.7,10c-0.2,1.6-3.4,3.3-3,9.4c0.4,6.4,2.2,9,2.4,10c0.2,1.1-3.7,3.4-4,8.7
		c-0.2,4.9,0.5,8.7,11.2,8.7c0,0,0.9-8.7,1-13c0-1.1,0-2.2,0-3.2c0-1.1-0.1-2.1-0.3-3.2c-0.3-2.2-0.5-4.3-0.7-6.5
		c-0.2-2.2-0.4-4.3-0.4-6.5c0-1.1,0-2.2,0.1-3.3c0-0.6,0.1-1.1,0.2-1.7c0.1-0.6,0.2-1.1,0.2-1.6c0.6-4.3,1.2-8.6,1.9-12.9h0.1
		c0,1.1-0.1,2.2-0.1,3.3l-0.2,3.3c-0.1,2.2-0.3,4.3-0.6,6.5c-0.1,0.6-0.1,1.1-0.2,1.6c-0.1,0.5-0.1,1-0.2,1.6
		c-0.1,1.1-0.1,2.1-0.1,3.2c0,2.2,0.1,4.3,0.2,6.5c0.1,2.2,0.3,4.3,0.6,6.5c0.1,1.1,0.2,2.2,0.2,3.3c0,1.1,0,2.2-0.1,3.3
		c-0.3,4.3-0.4,8.7-1,13c11.3,0,10.8-3.8,11.1-8.7c0.3-5.6-1-6.9-1.2-8.7C436.1,174.2,439.5,171.6,439.5,165.1z"/>
	<path fill="#FFFFFF" d="M425.9,192.8c0,0-0.2,1.3-0.5,2.4c-0.3,1-0.7,1.9-1.1,2.9h1.6c0,0,0.2-1.1,0.4-2.2c0.1-1,0.2-2,0.2-3.1
		L425.9,192.8z"/>
</g>
</svg>
