<?xml version="1.0" encoding="utf-8"?>
<!-- Generator: Adobe Illustrator 25.0.0, SVG Export Plug-In . SVG Version: 6.00 Build 0)  -->
<svg version="1.1" id="Layer_1" xmlns="http://www.w3.org/2000/svg" xmlns:xlink="http://www.w3.org/1999/xlink" x="0px" y="0px"
	 viewBox="0 0 435.1 246.3" enable-background="new 0 0 435.1 246.3" xml:space="preserve">
<g>
	<path d="M359.9,118.5c0.2,0,0.3,0,0.4,0c5.8,0.4,9.5,0.6,9.2-4.9c-0.2-2.9-0.2-6.1-0.1-8.5l0.1,0c0-0.5,0-1-0.1-1.5
		c0-1.2,0.1-1.9,0.1-1.9s-0.1,0-0.2,0.1c-0.8-8-3.6-20.9-9.1-27.6c0.5-4.9-0.7-7.4-8.9-7.4h-4.2c-3.4-1-7.1-1.9-10.8-2.6L333.2,52
		c1.4-0.5,2.7-1.2,3.9-2c0,0-0.5,0.3-1.6-1.8c-1.1-2.1,0.7-7.1,0.7-7.1c3.3-10.4,4.1-16.6,3-22.4c-1.1-5.8-5.4-13-17.1-14.3
		c-15.2-1.7-22.3,8.9-26.3,10.3s-2.2-8.5-2.2-8.5s-11.4,6.4-10.8,11.6c1.1,8.7,10.9,12.7,10.9,12.7l0,0c0.3,3.3,1.2,7.2,2.5,11.5
		c1,3.2,2.2,7.2,3.5,10.5l-30.3,0.3v32.3c-2.4,2.1-3.9,3.6-3.9,3.6l0.6,1.7c-0.4,0.3-0.6,0.5-0.6,0.5s-0.6,0.4-1.7,1.2V53.1h-86.7
		v48.4h39l1.6,12.1h-52.2v4.3h52.8l0,0h3.7l0,0h44c2.1,0,3.4,0,3.4,0s0,0,0,0h6.1v-4.3h-7.4c-1.4-1.3-4.1-2.6-9-3.4
		c3.5-2.2,7.5-4.8,11.6-7.6l0.4,1l5.1-2.3l11.7,0c0,3.4,0.1,7.2,0.2,11.4c0.1,1.8,0.1,3.5,0.2,5.1c-38.3,0-85.9,0-120.8,0.1
		C99,118.2,2.2,117.3,2.2,117.3l1.3,3.4c0,0,0,0,0,0l3.8,10.1h13.1L21,137h11.7l8.1,98.6h3.5l0,0h9.5v-17.1l22.4-32.1l20.9,25.6v0
		l-20.9-25.6l-1.5,2.2l21.7,26.9h0.8l0,0.2h3.3l-0.4,20.7l10.7-0.7l7.1-98.6h9.5l5.1-6.8l156.4,0.3c0,1,0.1,2,0.1,2.9l0.5,24.3
		c-11.1,1.1-47.3,4.6-55.9,5.7c-10.2,1.2-19.5,1.8-17.3,12.8c2.2,10.9,6.8,61.1,6.9,61.4c-5.2,0.2-12.2,0.5-14.4,0.9
		c-12.9,2-15.7,5-15.7,5h36.5l-0.3-6l0,0c0,0,0.3-36.6,0.8-52.9c0.7,0.1,1.4,0.1,2.2,0.1c1.6,0,6.1,0,12.5,0l2,52.3
		c-2.5,0.1-15.1,6.1-11.2,6.1c1.8,0,15,0,19,0c1.9,0-1.1-6.1-1.2-6.1l5.9-52.3c8.9,0,19,0.1,28.8,0.1v10.4V237
		c-8.9,0.3-17.7,2.1-26,5.2v2.1h60.1v-1.8c-8.3-3.4-17.1-5.2-26-5.5v-41.9v-10.4c11.6,0,22.2,0.1,29.4,0.1v50.8l2.8,0.7l0,0
		l10.9-0.2l0.9-13.5l30.4-0.7l-1,14.4h1.7h11.4l15.7-99.6h10.2l5.7-6.4h10.9l1.4-7.4L359.9,118.5z M224.1,101.5H251
		c-5.3,3.9-10.7,8-13.7,10.7c-0.8,0.5-1.5,1-2,1.5h-12.7L224.1,101.5z M344.1,180.6c3.7-4,5.1-9.7,5.5-12.9c0.1-0.6,0.1-1.1,0.2-1.6
		l5.1,11.1l0.2,0l-12.2,21L344.1,180.6z M372.1,198.4l-8.6-19.8l11.2-18.6L372.1,198.4z M376.6,140.4l-17,29.2l-8.1-18.2
		c0.5-5.2,1-10.1,1.4-14.6h23.6L376.6,140.4z M69.2,180.9L54,203.1l-0.2,6v-45.2L69.2,180.9z M96.9,156.8L97,203l-17-23l19.9-27.6
		L96.9,156.8z M97.1,136.8v3.3l-22.2,32.5l-20.4-28.2v-7.4l47.5-0.3L97.1,136.8z M371.2,211.4h-28l15.9-26.1l12.3,22.3L371.2,211.4z
		"/>
	<polygon points="135.9,118.1 140.6,118.1 138.2,101.5 171.6,101.5 171.6,53.1 106.7,48.2 106.7,101.5 133.5,101.5 	"/>
</g>
<g>
	<path fill="#FFFFFF" d="M363.9,119.5c0.2,0,0.3,0,0.4,0c5.8,0.4,9.5,0.6,9.2-4.9c-0.2-2.9-0.2-6.1-0.1-8.5l0.1,0c0-0.5,0-1-0.1-1.5
		c0-1.2,0.1-1.9,0.1-1.9s-0.1,0-0.2,0.1c-0.8-8-3.6-20.9-9.1-27.6c0.5-4.9-0.7-7.4-8.9-7.4h-4.2c-3.4-1-7.1-1.9-10.8-2.6L337.2,53
		c1.4-0.5,2.7-1.2,3.9-2c0,0-0.5,0.3-1.6-1.8c-1.1-2.1,0.7-7.1,0.7-7.1c3.3-10.4,4.1-16.6,3-22.4c-1.1-5.8-5.4-13-17.1-14.3
		c-15.2-1.7-22.3,8.9-26.3,10.3s-2.2-8.5-2.2-8.5s-11.4,6.4-10.8,11.6c1.1,8.7,10.9,12.7,10.9,12.7l0,0c0.3,3.3,1.2,7.2,2.5,11.5
		c1,3.2,2.2,7.2,3.5,10.5l-30.3,0.3v32.3c-2.4,2.1-3.9,3.6-3.9,3.6l0.6,1.7c-0.4,0.3-0.6,0.5-0.6,0.5s-0.6,0.4-1.7,1.2V54.1h-86.7
		v48.4h39l1.6,12.1h-52.2v4.3h52.8l0,0h3.7l0,0h44c2.1,0,3.4,0,3.4,0s0,0,0,0h6.1v-4.3h-7.4c-1.4-1.3-4.1-2.6-9-3.4
		c3.5-2.2,7.5-4.8,11.6-7.6l0.4,1l5.1-2.3l11.7,0c0,3.4,0.1,7.2,0.2,11.4c0.1,1.8,0.1,3.5,0.2,5.1c-38.3,0-85.9,0-120.8,0.1
		c-68.5,0.2-165.2-0.7-165.2-0.7l1.3,3.4c0,0,0,0,0,0l3.8,10.1h13.1L25,138h11.7l8.1,98.6h3.5l0,0h9.5v-17.1l22.4-32.1l20.9,25.6v0
		l-20.9-25.6l-1.5,2.2l21.7,26.9h0.8l0,0.2h3.3l-0.4,20.7l10.7-0.7l7.1-98.6h9.5l5.1-6.8l156.4,0.3c0,1,0.1,2,0.1,2.9l0.5,24.3
		c-11.1,1.1-47.3,4.6-55.9,5.7c-10.2,1.2-19.5,1.8-17.3,12.8c2.2,10.9,6.8,61.1,6.9,61.4c-5.2,0.2-12.2,0.5-14.4,0.9
		c-12.9,2-15.7,5-15.7,5h36.5l-0.3-6l0,0c0,0,0.3-36.6,0.8-52.9c0.7,0.1,1.4,0.1,2.2,0.1c1.6,0,6.1,0,12.5,0l2,52.3
		c-2.5,0.1-15.1,6.1-11.2,6.1c1.8,0,15,0,19,0c1.9,0-1.1-6.1-1.2-6.1l5.9-52.3c8.9,0,19,0.1,28.8,0.1v10.4V238
		c-8.9,0.3-17.7,2.1-26,5.2v2.1h60.1v-1.8c-8.3-3.4-17.1-5.2-26-5.5v-41.9v-10.4c11.6,0,22.2,0.1,29.4,0.1v50.8l2.8,0.7l0,0
		l10.9-0.2l0.9-13.5l30.4-0.7l-1,14.4h1.7h11.4l15.7-99.6h10.2l5.7-6.4h10.9l1.4-7.4L363.9,119.5z M228.1,102.5H255
		c-5.3,3.9-10.7,8-13.7,10.7c-0.8,0.5-1.5,1-2,1.5h-12.7L228.1,102.5z M348.1,181.6c3.7-4,5.1-9.7,5.5-12.9c0.1-0.6,0.1-1.1,0.2-1.6
		l5.1,11.1l0.2,0l-12.2,21L348.1,181.6z M376.1,199.4l-8.6-19.8l11.2-18.6L376.1,199.4z M380.6,141.4l-17,29.2l-8.1-18.2
		c0.5-5.2,1-10.1,1.4-14.6h23.6L380.6,141.4z M73.2,181.9L58,204.1l-0.2,6v-45.2L73.2,181.9z M100.9,157.8L101,204l-17-23l19.9-27.6
		L100.9,157.8z M101.1,137.8v3.3l-22.2,32.5l-20.4-28.2v-7.4l47.5-0.3L101.1,137.8z M375.2,212.4h-28l15.9-26.1l12.3,22.3
		L375.2,212.4z"/>
	<polygon fill="#FFFFFF" points="139.9,119.1 144.6,119.1 142.2,102.5 175.6,102.5 175.6,54.1 110.7,49.2 110.7,102.5 137.5,102.5 	
		"/>
</g>
<g>
	<g>
	</g>
</g>
<g>
	<path fill="#B2B1B1" d="M5.2,119.3c0,0,96.8,0.9,165.2,0.7c68.5-0.2,186.1,0,186.1,0l-0.7,3.5c0,0-112.4,1.7-188.6,1.8
		c-65.9,0.1-160.7-2.6-160.7-2.6L5.2,119.3z"/>
	<polygon fill="#FFFFFF" points="57,205.1 100.1,142.1 100.1,138.8 105,138.8 103.4,217.7 100.1,217.7 99.9,158.8 102.9,154.5 
		102.9,145.6 56.8,211 	"/>
	<polygon fill="#02666C" points="135.5,132.1 130.2,139 120.7,139 113.6,237.7 102.9,238.4 105,138.8 57.5,139 57.5,146.4 
		79.6,176.9 75.6,182.8 56.8,159.5 56.8,211 56.8,237.7 47.3,237.7 43,131.4 	"/>
	<path fill="#009BAB" d="M5.2,119.3l5,13.5h13.1L24,139h11.7l8.1,98.6h3.6L44,139h8.6l1.9-6.9l261.2,0.5l1.4,6.4h11.4v98.6l2.9,0.7
		l5-99.8h8l1.9-5.9h7.6l2.6-12.6c0,0-118.6,1.9-189.4,1.9S5.2,119.3,5.2,119.3z"/>
	<polygon fill="#02666C" points="102.9,145.2 56.8,211 56.8,220.6 79.1,188.5 102.2,216.7 102.3,208 83,182.1 102.9,154.5 	"/>
	<polygon fill="#7A7A7A" points="72.2,182.9 75.6,182.8 56.8,159.5 56.8,165.9 	"/>
	<polygon fill="#7A7A7A" points="79.1,188.5 102.9,217.5 99.3,217.5 77.6,190.6 	"/>
	<polygon fill="#FFFFFF" points="379.6,138.8 379.6,142.4 345.8,200.4 345.5,207.4 382.5,144.7 382.2,154.5 377.6,162 372.6,238.4 
		374.3,238.4 385.2,138.8 	"/>
	<polygon fill="#7A7A7A" points="348.7,159 358,179.2 360.8,178.9 349.1,152.8 	"/>
	<polygon fill="#02666C" points="356.5,120 429.7,125 428.3,132.4 417.3,132.4 411.6,138.8 401.4,138.8 385.7,238.4 374.3,238.4 
		385.2,138.8 350.3,138.8 350.3,143.8 363.6,173.8 360.8,178.9 349.1,152.8 345.5,207.4 382.5,144.7 382.2,154.5 366.5,180.6 
		376.2,203 376.1,209.6 363.4,185.3 346.2,213.4 374.2,213.4 373.6,224 343.1,224.7 342.2,238.2 331.3,238.4 336.3,138.6 
		344.4,138.6 346.3,132.6 353.9,132.6 	"/>
	<polygon fill="#7A7A7A" points="374.5,209.6 362.2,187.3 363.4,185.3 376.1,209.6 	"/>
	
		<linearGradient id="SVGID_2_" gradientUnits="userSpaceOnUse" x1="223.5459" y1="-3743.2717" x2="223.5459" y2="-3694.8345" gradientTransform="matrix(1 0 0 -1 0 -3639.7466)">
		<stop  offset="0" style="stop-color:#49494A"/>
		<stop  offset="1" style="stop-color:#000000"/>
	</linearGradient>
	<rect x="180.2" y="55.1" fill="url(#SVGID_2_)" width="86.7" height="48.4"/>
	
		<linearGradient id="SVGID_3_" gradientUnits="userSpaceOnUse" x1="142.1622" y1="-3743.2717" x2="142.1622" y2="-3689.9897" gradientTransform="matrix(1 0 0 -1 0 -3639.7466)">
		<stop  offset="0" style="stop-color:#49494A"/>
		<stop  offset="1" style="stop-color:#000000"/>
	</linearGradient>
	<polygon fill="url(#SVGID_3_)" points="174.6,55.1 109.7,50.2 109.7,103.5 174.6,103.5 	"/>
	
		<linearGradient id="SVGID_4_" gradientUnits="userSpaceOnUse" x1="300.4501" y1="-3743.2717" x2="300.4501" y2="-3694.2329" gradientTransform="matrix(1 0 0 -1 0 -3639.7466)">
		<stop  offset="0" style="stop-color:#49494A"/>
		<stop  offset="1" style="stop-color:#000000"/>
	</linearGradient>
	<polygon fill="url(#SVGID_4_)" points="272.5,55.1 272.5,103.5 328.4,103.3 328.4,54.5 	"/>
	
		<linearGradient id="SVGID_6_" gradientUnits="userSpaceOnUse" x1="140.062" y1="-3759.8042" x2="140.062" y2="-3743.2717" gradientTransform="matrix(1 0 0 -1 0 -3639.7466)">
		<stop  offset="0" style="stop-color:#49494A"/>
		<stop  offset="1" style="stop-color:#000000"/>
	</linearGradient>
	<polygon fill="url(#SVGID_6_)" points="136.5,103.5 138.9,120.1 143.6,120.1 141.2,103.5 	"/>
	
		<linearGradient id="SVGID_8_" gradientUnits="userSpaceOnUse" x1="223.1538" y1="-3759.6968" x2="223.1538" y2="-3743.2717" gradientTransform="matrix(1 0 0 -1 0 -3639.7466)">
		<stop  offset="0" style="stop-color:#49494A"/>
		<stop  offset="1" style="stop-color:#000000"/>
	</linearGradient>
	<polygon fill="url(#SVGID_8_)" points="219.2,103.5 221.4,120 225.1,120 227.1,103.5 	"/>
	
		<linearGradient id="SVGID_10_" gradientUnits="userSpaceOnUse" x1="299.2524" y1="-3759.7075" x2="299.2524" y2="-3743.1213" gradientTransform="matrix(1 0 0 -1 0 -3639.7466)">
		<stop  offset="0" style="stop-color:#49494A"/>
		<stop  offset="1" style="stop-color:#000000"/>
	</linearGradient>
	<polygon fill="url(#SVGID_10_)" points="304.3,103.4 299.1,120 294.2,120 299.3,103.4 	"/>
	<rect x="168.6" y="115.6" fill="#49494A" width="110" height="4.3"/>
	<g>
		
			<ellipse transform="matrix(0.1688 -0.9856 0.9856 0.1688 35.9826 209.4901)" fill="#7290C2" cx="142.2" cy="83.4" rx="6.9" ry="5.9"/>
		<path fill="#7290C2" d="M150.4,79.3c-1.1-1.4-2.4-2.6-4-3.5c-1.3-0.7-2.9-1-4.4-0.8c-1.6,0.2-3,0.8-4.3,1.7
			c-1.4,1.1-2.7,2.3-3.8,3.8c0-2.1,0.7-4.1,2.1-5.6c1.4-1.7,3.5-2.8,5.7-3c2.3-0.2,4.5,0.5,6.2,2C149.4,75.2,150.3,77.2,150.4,79.3z
			"/>
		<path fill="#7290C2" d="M152,75.9c-1.2-1.7-2.8-3.2-4.6-4.3c-1.6-0.9-3.5-1.3-5.4-1.1c-1.9,0.2-3.7,1-5.3,2.1
			c-1.7,1.3-3.2,2.9-4.4,4.7c0.1-2.4,1-4.7,2.6-6.6c1.7-2,4.1-3.2,6.6-3.5c2.6-0.3,5.3,0.6,7.2,2.3C150.8,71.2,151.9,73.5,152,75.9z
			"/>
		<path fill="#7290C2" d="M155.3,73.8c-1.5-2.5-3.5-4.6-5.9-6.1c-2.3-1.4-4.9-2-7.5-1.7c-2.7,0.3-5.2,1.4-7.2,3.1
			c-2.2,1.8-4.1,4.1-5.5,6.6c0.3-3.1,1.7-6.1,3.8-8.4c2.2-2.5,5.3-4.1,8.6-4.4c3.4-0.4,6.8,0.7,9.3,2.9
			C153.3,67.7,154.9,70.6,155.3,73.8z"/>
	</g>
	<rect x="183.6" y="94.8" fill="#FAFCFC" width="78.6" height="6.6"/>
	<path fill="#EDC01B" d="M295.6,159.5c0,0-48.9,4.8-59.1,6c-10.2,1.2-19.5,1.8-17.3,12.8s6.9,61.4,6.9,61.4l6.1-0.2
		c0,0,0.5-58.7,1.3-60.6c0.8-2,51.2-1.7,57.5-0.6c14.7,2.6,31.5,2.1,40.3,0c8.7-2.1,12.5-13.1,13.5-16c0.6-2.2,0.6-4.5,0-6.7
		L295.6,159.5z"/>
	<path fill="#A7B2A7" d="M268.6,93.1c0,0-33,22.9-30.5,23.9c3.4,1.4,12.6,2.3,12.6,2.3s53.5-31.5,48.4-39.2S268.6,93.1,268.6,93.1z"
		/>
	<path fill="#A7B2A7" d="M318.4,68.7l-3.1-9.8c0,0-5.5,3.2-8.2,2.5c-2.7-0.7-5.7-10.5-7.7-17.2c-3.7-12-3.7-20.6,1.2-22
		c4.9-1.4,34-11.3,35.9,0c1.9,11.3-1.8,25.1-1.8,25.1l5.5,22.1L318.4,68.7z"/>
	<path fill="#A7B2A7" d="M372.5,103.7c0,0-0.3,6.4,0,11.9c0.3,5.5-3.4,5.3-9.2,4.9c-3.3-0.2-22.6-0.6-32-1.2c-6.3-0.4,1.3-7,8.8-8.4
		C347.6,109.5,372.5,103.7,372.5,103.7z"/>
	<path fill="#49494A" d="M306.1,64.7c-15.6,5.5-20.4,11.8-24,14.6c-7.6,6-13.5,11.6-13.5,11.6l5.5,14.8l17-7.5l1.5,71l49.1,2
		l21.7-61l9.2-3.1c-0.2-8.1-3.7-27.2-11.8-33.4c-7.6-5.8-25.4-8.6-37.6-9.9C316,63.1,306.1,64.7,306.1,64.7z"/>
	<path fill="#B2B1B1" d="M232.5,245.5H196c0,0,2.8-3,15.7-5c3.6-0.5,20.5-1.1,20.5-1.1L232.5,245.5z"/>
	<path fill="#B2B1B1" d="M257.5,245.1c-4,0-17.2,0-19,0c-3.9,0,8.7-6,11.2-6.1c3.7-0.1,6.6,0,6.6,0S259.5,245.1,257.5,245.1z"/>
	<path fill="#A7B2A7" d="M253,111.4c-14.5-0.5-19.3,8.4-15.1,8.4s34.6,0.1,34.6,0.1S276.3,112.2,253,111.4z"/>
	<polygon fill="#EDC01B" points="247.6,183.3 249.7,239 256.4,239 262.6,183.3 	"/>
	<path fill="#009BAB" d="M339.2,43.2c0,0-1.7,5-0.7,7.1c1.1,2.1,1.6,1.8,1.6,1.8c-2.6,1.8-5.6,2.8-8.8,3c-4.7,0.1-12.9-2-12.9-2
		l-6.6-13.3c0,0-4-11-6.3-7c-1.1,1.9,3.4,14.6,3.4,14.6l-6.6-10.9l-5.5-3.7c0,0-9.9-4-10.9-12.7c-0.6-5.2,10.8-11.6,10.8-11.6
		s-1.8,9.9,2.2,8.5s11-12,26.3-10.3c11.6,1.3,16,8.5,17.1,14.3S342.5,32.7,339.2,43.2z"/>
	
		<linearGradient id="SVGID_12_" gradientUnits="userSpaceOnUse" x1="295.626" y1="-3826.6643" x2="295.626" y2="-3708.5525" gradientTransform="matrix(1 0 0 -1 0 -3639.7466)">
		<stop  offset="0" style="stop-color:#49494A"/>
		<stop  offset="1" style="stop-color:#000000"/>
	</linearGradient>
	<path fill="url(#SVGID_12_)" d="M300.4,68.8h53.9c11.6,0,9.2,5,7.8,14.5c-1.5,10.4-3.5,19.3-5.4,45c-0.8,10.9-1.9,24.8-4.1,41.4
		c-0.7,5.2-4.1,17.2-15.3,17.2c-2.4,0-93.6-0.3-102.2-0.3c-12.3,0.1-7.5-10,2.6-10.1c7.5-0.1,41.9,0.2,46.6,0.1
		c7.9,0,8.2-5.8,8.2-9.5c0.2-10.8-0.7-25.5-1.6-52.3c-0.8-24.7,1.1-35.4,2.3-39.9C294.3,71.4,296.4,68.8,300.4,68.8z"/>
	<path fill="#49494A" d="M325.1,246.3h-60.1v-2.1c8.3-3.1,17.1-4.8,26-5.2h8.1c8.9,0.2,17.7,2.1,26,5.5V246.3z"/>
	<rect x="291.1" y="186.7" fill="#49494A" width="8.1" height="54.8"/>
	<rect x="291.1" y="186.7" fill="#2D2D2D" width="8.1" height="10.5"/>
	<rect x="194.3" y="95.5" fill="#EC008C" width="13" height="0.7"/>
	<rect x="194.3" y="96.7" fill="#EC008C" width="9.6" height="0.7"/>
	<rect x="194.3" y="99" fill="#EC008C" width="5.7" height="0.7"/>
	<rect x="194.3" y="100.2" fill="#EC008C" width="10.5" height="0.7"/>
	<rect x="231" y="95.7" fill="#4B4C4C" width="18.9" height="5"/>
	<path fill="none" d="M218.2,98.1c0,1.3,1.1,2.4,2.4,2.4c1.2,0,2.2-0.9,2.4-2.1l0,0c0-0.1,0-0.2,0-0.3c0-0.1,0-0.2,0-0.3l0,0
		c-0.1-0.5-0.3-1-0.7-1.4c-0.1-0.1-0.2-0.2-0.4-0.3l-0.2-0.1l-0.2-0.1c-0.1-0.1-0.2-0.1-0.3-0.1l0,0c-0.2-0.1-0.5-0.1-0.7-0.1h-0.3
		C219.1,95.8,218.2,96.8,218.2,98.1z"/>
	<path fill="#009EAE" d="M220.6,100.5c-1.3,0.1-2.4-1-2.5-2.3c-0.1-1.3,0.9-2.4,2.2-2.5v-0.6c-1.6,0.1-2.9,1.6-2.7,3.2
		s1.6,2.9,3.2,2.7c1.4-0.1,2.6-1.2,2.7-2.7H223C222.8,99.6,221.8,100.4,220.6,100.5z"/>
	<path fill="#EC008C" d="M222.8,96c-0.5-0.5-1.1-0.8-1.8-0.8c-0.2,0-0.4,0-0.6,0v0.6h0.3c0.2,0,0.5,0,0.7,0.1l0,0
		c0.1,0,0.2,0.1,0.3,0.1l0.2,0.1l0.2,0.1c0.1,0.1,0.2,0.2,0.4,0.3c0.4,0.4,0.6,0.9,0.7,1.4c0,0.1,0,0.2,0,0.3c0,0.1,0,0.2,0,0.3h0.6
		c0-0.4,0-0.7-0.1-1.1C223.3,96.8,223.1,96.4,222.8,96z"/>
	<path fill="none" stroke="#009EAE" stroke-miterlimit="10" d="M186.1,98.2c0,1.1,0.8,2,1.9,2c1,0,1.9-0.7,2-1.8l0,0
		c0-0.2,0-0.3,0-0.5l0,0c-0.1-0.4-0.3-0.8-0.5-1.1l-0.3-0.2l-0.1-0.1l-0.1-0.1c-0.1,0-0.2-0.1-0.3-0.1l0,0c-0.2-0.1-0.4-0.1-0.6-0.1
		h-0.2C186.9,96.4,186.1,97.2,186.1,98.2z"/>
	<path fill="#009EAE" stroke="#009EAE" stroke-miterlimit="10" d="M188.1,100.1c-1.1,0-2-0.8-2-1.9c0-1,0.7-1.9,1.8-2v-0.5
		c-1.3,0.1-2.3,1.3-2.2,2.7c0.1,1.3,1.3,2.3,2.7,2.2c1.1-0.1,2.1-1,2.2-2.2H190C189.9,99.4,189,100.1,188.1,100.1z"/>
	<path fill="#EC008C" stroke="#009EAE" stroke-miterlimit="10" d="M189.8,96.5c-0.4-0.4-0.9-0.6-1.5-0.7c-0.2,0-0.3,0-0.5,0v0.5h0.2
		c0.2,0,0.4,0,0.6,0.1l0,0c0.1,0,0.2,0.1,0.3,0.1l0.1,0.1l0.1,0.1l0.3,0.2c0.3,0.3,0.5,0.7,0.5,1.1c0,0,0,0.2,0,0.2
		c0,0.1,0,0.2,0,0.2h0.5c0-0.3,0-0.6-0.1-0.9C190.3,97.1,190.1,96.8,189.8,96.5z"/>
	<rect x="233.3" y="96.3" fill="#FAFCFC" width="6.3" height="0.5"/>
	<rect x="233.3" y="97.3" fill="#FAFCFC" width="4.2" height="0.5"/>
	<rect x="243" y="97.8" fill="#FAFCFC" width="0.5" height="2.4"/>
	<rect x="244.3" y="96.3" fill="#FAFCFC" width="0.5" height="3.9"/>
	<rect x="245.7" y="97.1" fill="#FAFCFC" width="0.5" height="3.1"/>
	<rect x="247.1" y="98.2" fill="#FAFCFC" width="0.5" height="2"/>
	<rect x="248.5" y="97.1" fill="#FAFCFC" width="0.5" height="3.1"/>
	<rect x="243" y="99" fill="#EC008C" width="0.5" height="1.2"/>
	<rect x="244.3" y="99" fill="#EC008C" width="0.5" height="1.2"/>
	<rect x="247.1" y="99.4" fill="#EC008C" width="0.5" height="0.8"/>
	<rect x="245.7" y="98.6" fill="#EC008C" width="0.5" height="1.5"/>
	<rect x="248.5" y="98.3" fill="#EC008C" width="0.5" height="1.9"/>
	<polygon fill="#009EAE" points="183.3,58.5 183.3,93.1 202.3,93.1 202.3,70.8 195.7,69 195.7,58.5 	"/>
	<rect x="187.8" y="61.1" fill="#EC008C" width="6.4" height="0.7"/>
	<rect x="187.8" y="62.3" fill="#FFFFFF" width="3.2" height="0.7"/>
	<rect x="187.8" y="84.7" fill="#EC008C" width="6.4" height="0.7"/>
	<rect x="187.8" y="85.9" fill="#FFFFFF" width="3.2" height="0.7"/>
	<rect x="216.1" y="91.6" fill="#EC008C" width="6.4" height="0.7"/>
	<rect x="216.1" y="92.8" fill="#FFFFFF" width="3.2" height="0.7"/>
	<rect x="215.8" y="58.8" fill="#EC008C" width="6.4" height="0.7"/>
	<rect x="215.8" y="60" fill="#FFFFFF" width="3.2" height="0.7"/>
	<rect x="204.4" y="58.6" fill="#EC008C" width="3.2" height="0.7"/>
	<rect x="204.4" y="59.7" fill="#FFFFFF" width="1.6" height="0.7"/>
	<rect x="187.8" y="66.2" fill="#EC008C" width="3.9" height="0.7"/>
	<rect x="187.8" y="67.4" fill="#FFFFFF" width="6.4" height="0.7"/>
	<rect x="187.8" y="78.8" fill="#EC008C" width="3.9" height="0.7"/>
	<rect x="187.8" y="79.9" fill="#FFFFFF" width="6.4" height="0.7"/>
	<rect x="187.8" y="72.8" fill="#EC008C" width="1.6" height="0.7"/>
	<rect x="187.8" y="74" fill="#FFFFFF" width="8.4" height="0.7"/>
	<circle fill="#FFFFFF" cx="211.7" cy="61.7" r="3.2"/>
	<circle fill="#FFFFFF" stroke="#000000" stroke-width="0.25" stroke-miterlimit="10" cx="211.7" cy="61.7" r="1.8"/>
	<circle fill="#009EAE" cx="211.7" cy="87.8" r="3.2"/>
	<circle fill="#FFFFFF" stroke="#8FDEE2" stroke-width="0.25" stroke-miterlimit="10" cx="211.7" cy="87.8" r="1.8"/>
	<line fill="none" stroke="#FFFFFF" stroke-width="0.25" stroke-miterlimit="10" x1="211.7" y1="65.7" x2="211.7" y2="83.8"/>
	<polygon fill="#F7FCFC" points="208.6,66.9 208.6,82.4 206.8,66.9 	"/>
	<circle fill="#009EAE" cx="239.8" cy="76.9" r="7.3"/>
	<polygon fill="#009EAE" points="239.8,68 239,69.2 240.6,69.2 	"/>
	<polygon fill="#009EAE" points="248.8,76.8 247.5,75.9 247.5,77.6 	"/>
	<polygon fill="#009EAE" points="230.9,76.8 232.1,77.6 232.1,75.9 	"/>
	<polygon fill="#009EAE" points="239.8,86 240.6,84.7 239,84.7 	"/>
	<circle fill="none" stroke="#5EB3C7" stroke-width="0.5" stroke-miterlimit="10" cx="239.8" cy="76.6" r="16"/>
	<path fill="none" d="M227.5,76.6c-0.1,6.8,5.3,12.4,12.1,12.5c6.8,0.1,12.4-5.3,12.5-12.1v-0.2c0-6.9-5.6-12.5-12.5-12.5l0,0
		C232.9,64.5,227.5,70,227.5,76.6z"/>
	<path fill="#5EB3C7" d="M252.1,77c-0.2,6.8-5.8,12.1-12.6,12c-6.8-0.2-12.1-5.8-12-12.6c0.2-6.6,5.5-11.8,12-12v-1.8
		c-7.8,0.1-14,6.6-13.9,14.4c0.1,7.8,6.6,14,14.4,13.9c7.5-0.1,13.6-6.1,13.9-13.5h-1.8V77z"/>
	<path fill="#FAFEFF" d="M254,76.8c-0.1-7.9-6.4-14.2-14.3-14.2h-0.1v1.8l0,0c6.9,0,12.5,5.6,12.5,12.5v0.4h1.8
		C253.9,77.1,253.9,76.9,254,76.8L254,76.8L254,76.8z"/>
	<line fill="none" stroke="#FFFFFF" stroke-width="0.25" stroke-miterlimit="10" x1="210.4" y1="67.4" x2="213" y2="67.4"/>
	<line fill="none" stroke="#FFFFFF" stroke-width="0.25" stroke-miterlimit="10" x1="211.3" y1="69.2" x2="212.1" y2="69.2"/>
	<line fill="none" stroke="#FFFFFF" stroke-width="0.25" stroke-miterlimit="10" x1="210.4" y1="71.4" x2="213" y2="71.4"/>
	<line fill="none" stroke="#FFFFFF" stroke-width="0.25" stroke-miterlimit="10" x1="211.3" y1="73.2" x2="212.1" y2="73.2"/>
	<line fill="none" stroke="#FFFFFF" stroke-width="0.25" stroke-miterlimit="10" x1="210.4" y1="75.3" x2="213" y2="75.3"/>
	<line fill="none" stroke="#FFFFFF" stroke-width="0.25" stroke-miterlimit="10" x1="211.3" y1="77.7" x2="212.1" y2="77.7"/>
	<line fill="none" stroke="#FFFFFF" stroke-width="0.25" stroke-miterlimit="10" x1="210.4" y1="80" x2="213" y2="80"/>
	<line fill="none" stroke="#FFFFFF" stroke-width="0.25" stroke-miterlimit="10" x1="211.3" y1="81.8" x2="212.1" y2="81.8"/>
	<path fill="#FFFFFF" d="M186.1,61.4v-1.4h-1v1.4c-0.6,0.3-0.8,0.9-0.5,1.5c0.2,0.4,0.6,0.6,1,0.6c0.6,0,1.1-0.5,1.1-1.1
		C186.8,62,186.5,61.6,186.1,61.4z M185.6,63.4c-0.5,0-0.9-0.4-0.9-0.9c0-0.3,0.2-0.6,0.4-0.7l0.2-0.1v-1.3h0.5v1.3l0.2,0.1
		c0.3,0.2,0.4,0.4,0.4,0.7C186.5,63,186.1,63.4,185.6,63.4C185.6,63.4,185.6,63.4,185.6,63.4L185.6,63.4z"/>
	<path fill="#EDC01B" d="M185.8,61.8v-1h-0.3v1c-0.4,0.1-0.6,0.4-0.6,0.8c0.1,0.3,0.4,0.6,0.7,0.6c0.4,0,0.7-0.3,0.7-0.7
		C186.3,62.2,186.1,61.9,185.8,61.8z"/>
	<path fill="#FFFFFF" d="M187.4,67.3V67h-0.7c0-0.1,0-0.2-0.1-0.3l0.6-0.4l-0.2-0.2l-0.6,0.4c-0.1-0.1-0.3-0.2-0.5-0.2v-0.8h-0.3
		v0.8c-0.2,0-0.3,0.1-0.5,0.2l-0.6-0.4l-0.2,0.2l0.6,0.5c0,0.1-0.1,0.2-0.1,0.3h-0.8v0.3h0.8c0,0.1,0,0.2,0.1,0.3l-0.6,0.4l0.2,0.2
		l0.6-0.4c0.1,0.1,0.3,0.2,0.5,0.2v0.8h0.3v-0.8c0.2,0,0.4-0.1,0.5-0.3l0.6,0.4l0.2-0.2l-0.6-0.4c0-0.1,0.1-0.2,0.1-0.2L187.4,67.3z
		 M185.9,67.9c-0.4,0-0.7-0.3-0.7-0.7c0-0.4,0.3-0.7,0.7-0.7c0.4,0,0.7,0.3,0.7,0.7v0C186.6,67.5,186.2,67.8,185.9,67.9L185.9,67.9z
		"/>
	<path fill="#EDC01B" d="M185.3,66.9c0,0.1-0.1,0.1-0.1,0.2c0,0.3,0.3,0.6,0.6,0.6c0.3,0,0.6-0.3,0.6-0.6l0,0c0-0.1,0-0.1,0-0.2
		H185.3z"/>
	<path fill="none" d="M185.7,72.6L185,74c-0.3,0.6,0.3,0.9,0.7,0.9c0.3,0,0.9-0.3,0.7-0.9C186,73.2,185.7,72.6,185.7,72.6z
		 M185.7,74.7c-0.2,0-0.7-0.2-0.5-0.7l0.5-1c0,0,0.2,0.4,0.5,1S185.9,74.7,185.7,74.7L185.7,74.7z"/>
	<path fill="#FFFFFF" d="M186.6,73.9c-0.6-1.2-1-2.1-1-2.1s-0.5,1.1-1,2.1c-0.5,1,0.5,1.3,1,1.3S187,74.8,186.6,73.9z M185.7,74.9
		c-0.3,0-0.9-0.3-0.7-0.9l0.7-1.5c0,0,0.3,0.6,0.7,1.5C186.6,74.6,186,74.9,185.7,74.9L185.7,74.9z"/>
	<path fill="#EDC01B" d="M185.7,73l-0.5,1c-0.2,0.4,0.2,0.7,0.5,0.7c0.2,0,0.7-0.2,0.5-0.7C185.9,73.6,185.7,73,185.7,73z"/>
	<path fill="none" d="M185.9,79.7c-0.2,0.4-0.2,0.9-0.1,1.4c0.5-0.1,0.9-0.4,1.1-0.8c0.2-0.4,0.2-0.9,0.1-1.4
		C186.5,79.1,186.1,79.3,185.9,79.7z M186.8,80.3c0,0.4-0.2,0.7-0.6,0.7c-0.4,0-0.7-0.2-0.7-0.6c0-0.3,0.1-0.6,0.4-0.7
		c0.2-0.3,0.6-0.6,1-0.7C187,79.5,187,79.9,186.8,80.3L186.8,80.3z"/>
	<path fill="#FFFFFF" d="M187.2,78.6c-1.1,0.1-1.9,1-1.8,2.1c0,0.3,0.1,0.5,0.2,0.7c1.1-0.1,1.9-1,1.8-2.1
		C187.4,79.1,187.3,78.9,187.2,78.6z M186.9,80.3c-0.3,0.4-0.7,0.7-1.1,0.8c-0.1-0.4-0.1-0.9,0.1-1.4c0.3-0.4,0.7-0.6,1.1-0.8
		C187.1,79.4,187.1,79.9,186.9,80.3L186.9,80.3z"/>
	<path fill="#FFFFFF" d="M184.5,80.4c-0.2-0.4-0.2-0.9-0.1-1.4c0.4,0.1,0.8,0.3,1.1,0.6v-0.1c0,0,0.1-0.1,0.1-0.1
		c-0.4-0.4-0.9-0.6-1.4-0.7c-0.2,0.6-0.2,1.2,0.1,1.8c0.3,0.4,0.7,0.7,1.1,0.8c0-0.1-0.1-0.2-0.1-0.3
		C185,80.9,184.7,80.7,184.5,80.4z"/>
	<path fill="#EDC01B" d="M185.9,79.8c-0.3,0.1-0.5,0.5-0.4,0.9c0.1,0.3,0.5,0.5,0.9,0.4c0.3-0.1,0.4-0.4,0.4-0.7
		c0.2-0.4,0.2-0.8,0.1-1.2C186.5,79.2,186.2,79.5,185.9,79.8z"/>
	<rect x="185.1" y="85.9" fill="#EDC01B" width="1.4" height="0.7"/>
	<path fill="#FFFFFF" d="M184.6,84.8v2.4h2.4v-2.4H184.6z M186.6,86.7h-1.7v-1.5h1.7V86.7z"/>
</g>
</svg>
